<svg width="62" height="125" viewBox="0 0 62 125" fill="none" xmlns="http://www.w3.org/2000/svg">
<path d="M30.8046 46.2331C43.2471 46.2331 53.3338 36.2737 53.3338 23.9881C53.3338 11.7026 43.2471 1.74315 30.8046 1.74315C18.3621 1.74315 8.27539 11.7026 8.27539 23.9881C8.27539 36.2737 18.3621 46.2331 30.8046 46.2331Z" stroke="#B4A57F" stroke-width="3" stroke-miterlimit="10"/>
<path d="M30.8047 14.7916V33.1849" stroke="#B4A57F" stroke-width="3" stroke-miterlimit="10"/>
<path d="M21.4905 23.9882H40.1188" stroke="#B4A57F" stroke-width="3" stroke-miterlimit="10"/>
<path d="M48.076 120.602C47.9064 120.281 47.5813 120.071 47.228 120.057C37.1789 119.722 32.755 111.656 32.755 105.265C32.755 102.892 32.7692 98.6078 32.7974 94.1141C34.7055 93.8211 36.0623 93.1373 36.0623 92.3139C36.0623 91.4905 34.7196 90.8067 32.8257 90.5136C32.8257 88.7273 32.8398 86.9829 32.854 85.392C32.854 84.9036 33.2356 84.5128 33.7161 84.443C48.2174 82.5032 59.5526 66.2033 59.6374 46.3168H2C2.07067 66.2033 13.4201 82.5172 27.9213 84.443C28.416 84.5128 28.7835 84.8896 28.7835 85.392C28.7835 86.9969 28.7976 88.7273 28.8117 90.5136C26.9178 90.8067 25.5751 91.5045 25.5751 92.3139C25.5751 93.1233 26.9178 93.8211 28.84 94.1141C28.8683 98.6078 28.8824 102.892 28.8824 105.265C28.8824 111.656 24.4444 119.722 14.4094 120.057C14.042 120.057 13.7169 120.281 13.5614 120.602C13.1515 121.383 12.0774 122.779 9.47675 122.779H52.1889C49.5883 122.779 48.5142 121.397 48.1043 120.602H48.076Z" stroke="#B4A57F" stroke-width="3" stroke-linecap="round" stroke-linejoin="round"/>
<path d="M51.6096 50.8245C51.6096 50.8245 52.288 72.4694 32.6279 78.2609" stroke="#B4A57F" stroke-width="3" stroke-linecap="round" stroke-linejoin="round"/>
<path d="M28.8259 94.1282C30.2393 94.2827 31.5537 94.2827 32.7834 94.1282" stroke="#B4A57F" stroke-width="3" stroke-linecap="round" stroke-linejoin="round"/>
</svg>
