<svg width="113" height="110" viewBox="0 0 113 110" fill="none" xmlns="http://www.w3.org/2000/svg">
<path d="M17.4629 103.321V60.165C17.4629 52.9826 23.3324 47.15 30.5603 47.15C37.7882 47.15 43.6577 52.9826 43.6577 60.165V108.473" stroke="#B4A57F" stroke-width="3" stroke-linecap="round" stroke-linejoin="round"/>
<path d="M43.6577 60.165C43.6577 52.9826 49.5273 47.1501 56.7551 47.1501C63.983 47.1501 69.8526 52.9826 69.8526 60.165V108.473" stroke="#B4A57F" stroke-width="3" stroke-linecap="round" stroke-linejoin="round"/>
<path d="M69.8525 60.165C69.8525 52.9826 75.7221 47.1501 82.95 47.1501C90.1778 47.1501 96.0474 52.9826 96.0474 60.165V103.321" stroke="#B4A57F" stroke-width="3" stroke-linecap="round" stroke-linejoin="round"/>
<path d="M56.7551 2.26028V17.4918" stroke="#B4A57F" stroke-width="3" stroke-linecap="round" stroke-linejoin="round"/>
<path d="M51.2844 7.6967H62.2259" stroke="#B4A57F" stroke-width="3" stroke-linecap="round" stroke-linejoin="round"/>
<path d="M30.3858 43.8561C35.6027 43.8561 39.8319 39.6536 39.8319 34.4695C39.8319 29.2854 35.6027 25.0829 30.3858 25.0829C25.1689 25.0829 20.9397 29.2854 20.9397 34.4695C20.9397 39.6536 25.1689 43.8561 30.3858 43.8561Z" stroke="#B4A57F" stroke-width="3" stroke-linecap="round" stroke-linejoin="round"/>
<path d="M83.1121 43.856C88.329 43.856 92.5582 39.6535 92.5582 34.4694C92.5582 29.2853 88.329 25.0828 83.1121 25.0828C77.8952 25.0828 73.666 29.2853 73.666 34.4694C73.666 39.6535 77.8952 43.856 83.1121 43.856Z" stroke="#B4A57F" stroke-width="3" stroke-linecap="round" stroke-linejoin="round"/>
<path d="M56.7925 43.856C62.0095 43.856 66.2386 39.6535 66.2386 34.4694C66.2386 29.2853 62.0095 25.0828 56.7925 25.0828C51.5756 25.0828 47.3464 29.2853 47.3464 34.4694C47.3464 39.6535 51.5756 43.856 56.7925 43.856Z" stroke="#B4A57F" stroke-width="3" stroke-linecap="round" stroke-linejoin="round"/>
<path d="M97.8185 66.3866C105.805 69.3748 110.623 73.2559 110.623 77.4841C110.623 86.9696 86.3871 94.6573 56.4984 94.6573C26.6097 94.6573 2.37427 86.9572 2.37427 77.4717C2.37427 73.3675 6.90437 69.6104 14.4546 66.6594" stroke="#B4A57F" stroke-width="3" stroke-linecap="round" stroke-linejoin="round"/>
</svg>
