<svg width="140" height="97" viewBox="0 0 140 97" fill="none" xmlns="http://www.w3.org/2000/svg">
<path d="M90.4668 18.1138H122.573C124.818 18.1138 126.648 19.9192 126.648 22.1631V86.3705" stroke="#B4A57F" stroke-width="3" stroke-linecap="round" stroke-linejoin="round"/>
<path d="M13.3811 85.8031V22.1631C13.3811 19.9321 15.1979 18.1138 17.456 18.1138H49.7827" stroke="#B4A57F" stroke-width="3" stroke-linecap="round" stroke-linejoin="round"/>
<path d="M3.31072 86.5382H136.705C137.432 86.5382 138.016 87.1185 138.016 87.8407V88.3049C138.016 92.1478 134.875 95.2686 131.008 95.2686H9.00779C5.14053 95.2686 2 92.1478 2 88.3049V87.8407C2 87.1185 2.58398 86.5382 3.31072 86.5382Z" stroke="#B4A57F" stroke-width="3" stroke-linecap="round" stroke-linejoin="round"/>
<path d="M70.0016 31.2544C78.1937 31.2544 84.8348 24.6552 84.8348 16.5146C84.8348 8.3741 78.1937 1.7749 70.0016 1.7749C61.8095 1.7749 55.1685 8.3741 55.1685 16.5146C55.1685 24.6552 61.8095 31.2544 70.0016 31.2544Z" stroke="#B4A57F" stroke-width="3" stroke-linecap="round" stroke-linejoin="round"/>
<path d="M34.8459 53.5767C42.0224 41.8803 54.9739 34.0656 69.7681 34.0656C84.5623 34.0656 98.0977 42.2285 105.157 54.3633" stroke="#B4A57F" stroke-width="3" stroke-linecap="round" stroke-linejoin="round"/>
<path d="M37.9605 74.8159C41.3936 74.8159 44.1767 72.0504 44.1767 68.6389C44.1767 65.2275 41.3936 62.4619 37.9605 62.4619C34.5275 62.4619 31.7444 65.2275 31.7444 68.6389C31.7444 72.0504 34.5275 74.8159 37.9605 74.8159Z" stroke="#B4A57F" stroke-width="3" stroke-linecap="round" stroke-linejoin="round"/>
<path d="M23.322 84.8099C26.3198 79.9096 31.7573 76.6341 37.9475 76.6341C44.1377 76.6341 49.8089 80.0514 52.7677 85.1323" stroke="#B4A57F" stroke-width="3" stroke-linecap="round" stroke-linejoin="round"/>
<path d="M69.9239 74.8159C73.357 74.8159 76.1401 72.0504 76.1401 68.6389C76.1401 65.2275 73.357 62.4619 69.9239 62.4619C66.4908 62.4619 63.7078 65.2275 63.7078 68.6389C63.7078 72.0504 66.4908 74.8159 69.9239 74.8159Z" stroke="#B4A57F" stroke-width="3" stroke-linecap="round" stroke-linejoin="round"/>
<path d="M55.2854 84.8099C58.2832 79.9096 63.7207 76.6341 69.9109 76.6341C76.1011 76.6341 81.7722 80.0514 84.7311 85.1323" stroke="#B4A57F" stroke-width="3" stroke-linecap="round" stroke-linejoin="round"/>
<path d="M101.887 74.8159C105.32 74.8159 108.103 72.0504 108.103 68.6389C108.103 65.2275 105.32 62.4619 101.887 62.4619C98.454 62.4619 95.6709 65.2275 95.6709 68.6389C95.6709 72.0504 98.454 74.8159 101.887 74.8159Z" stroke="#B4A57F" stroke-width="3" stroke-linecap="round" stroke-linejoin="round"/>
<path d="M87.2485 84.8099C90.2463 79.9096 95.6838 76.6341 101.874 76.6341C108.064 76.6341 113.735 80.0514 116.694 85.1323" stroke="#B4A57F" stroke-width="3" stroke-linecap="round" stroke-linejoin="round"/>
</svg>
