<svg width="136" height="83" viewBox="0 0 136 83" fill="none" xmlns="http://www.w3.org/2000/svg">
<path d="M68.2207 20.923C73.4793 20.923 77.7422 16.687 77.7422 11.4615C77.7422 6.23607 73.4793 2 68.2207 2C62.9621 2 58.6992 6.23607 58.6992 11.4615C58.6992 16.687 62.9621 20.923 68.2207 20.923Z" stroke="#B4A57F" stroke-width="3" stroke-linecap="round" stroke-linejoin="round"/>
<path d="M45.6553 35.2703C50.2601 27.7594 58.5891 22.7461 68.0739 22.7461C77.5587 22.7461 86.273 27.9964 90.8044 35.7808" stroke="#B4A57F" stroke-width="3" stroke-linecap="round" stroke-linejoin="round"/>
<path d="M22.9246 66.499C27.7779 66.499 31.7123 62.5894 31.7123 57.7667C31.7123 52.944 27.7779 49.0344 22.9246 49.0344C18.0713 49.0344 14.137 52.944 14.137 57.7667C14.137 62.5894 18.0713 66.499 22.9246 66.499Z" stroke="#B4A57F" stroke-width="3" stroke-linecap="round" stroke-linejoin="round"/>
<path d="M2.23047 80.6092C6.46836 73.6817 14.1553 69.0512 22.9062 69.0512C31.6572 69.0512 39.6743 73.8822 43.8572 81.065" stroke="#B4A57F" stroke-width="3" stroke-linecap="round" stroke-linejoin="round"/>
<path d="M68.1104 66.499C72.9637 66.499 76.8981 62.5894 76.8981 57.7667C76.8981 52.944 72.9637 49.0344 68.1104 49.0344C63.2571 49.0344 59.3228 52.944 59.3228 57.7667C59.3228 62.5894 63.2571 66.499 68.1104 66.499Z" stroke="#B4A57F" stroke-width="3" stroke-linecap="round" stroke-linejoin="round"/>
<path d="M47.4163 80.6092C51.6541 73.6817 59.3411 69.0512 68.092 69.0512C76.843 69.0512 84.8601 73.8822 89.043 81.065" stroke="#B4A57F" stroke-width="3" stroke-linecap="round" stroke-linejoin="round"/>
<path d="M113.296 66.499C118.15 66.499 122.084 62.5894 122.084 57.7667C122.084 52.944 118.15 49.0344 113.296 49.0344C108.443 49.0344 104.509 52.944 104.509 57.7667C104.509 62.5894 108.443 66.499 113.296 66.499Z" stroke="#B4A57F" stroke-width="3" stroke-linecap="round" stroke-linejoin="round"/>
<path d="M92.6021 80.6092C96.8399 73.6817 104.527 69.0512 113.278 69.0512C122.029 69.0512 130.046 73.8822 134.229 81.065" stroke="#B4A57F" stroke-width="3" stroke-linecap="round" stroke-linejoin="round"/>
</svg>
