<svg width="115" height="128" viewBox="0 0 115 128" fill="none" xmlns="http://www.w3.org/2000/svg">
<path d="M107.164 81.4087V68.276C107.164 66.4374 105.67 64.9344 103.81 64.9344H5.46752C3.62222 64.9344 2.11377 66.4228 2.11377 68.276V81.4087C2.20164 81.4087 2.28951 81.4087 2.37738 81.4087C10.6958 81.4087 17.4326 88.121 17.4326 96.4092C17.4326 104.697 10.6958 111.41 2.37738 111.41C2.28951 111.41 2.20164 111.41 2.11377 111.41V122.397C2.11377 124.236 3.60758 125.739 5.46752 125.739H103.825C105.67 125.739 107.178 124.25 107.178 122.397V111.424C98.8891 111.395 92.167 104.697 92.167 96.4237C92.167 88.1501 98.8891 81.4525 107.178 81.4233L107.164 81.4087Z" stroke="#B4A57F" stroke-width="3" stroke-linecap="round" stroke-linejoin="round"/>
<path d="M29.3977 64.9489V70.056" stroke="#B4A57F" stroke-width="3" stroke-linecap="round" stroke-linejoin="round"/>
<path d="M29.3977 79.9784V114.736" stroke="#B4A57F" stroke-width="3" stroke-linecap="round" stroke-linejoin="round"/>
<path d="M29.3977 119.698V124.805" stroke="#B4A57F" stroke-width="3" stroke-linecap="round" stroke-linejoin="round"/>
<path d="M79.8796 64.9489V124.805" stroke="#B4A57F" stroke-width="3" stroke-linecap="round" stroke-linejoin="round"/>
<path d="M44.9361 90.1198C48.3413 90.1198 51.1017 87.3694 51.1017 83.9766C51.1017 80.5839 48.3413 77.8335 44.9361 77.8335C41.5309 77.8335 38.7705 80.5839 38.7705 83.9766C38.7705 87.3694 41.5309 90.1198 44.9361 90.1198Z" stroke="#B4A57F" stroke-width="3" stroke-linecap="round" stroke-linejoin="round"/>
<path d="M65.4249 110.534C68.8301 110.534 71.5905 107.784 71.5905 104.391C71.5905 100.998 68.8301 98.2476 65.4249 98.2476C62.0197 98.2476 59.2593 100.998 59.2593 104.391C59.2593 107.784 62.0197 110.534 65.4249 110.534Z" stroke="#B4A57F" stroke-width="3" stroke-linecap="round" stroke-linejoin="round"/>
<path d="M65.2637 82.4445L41.2456 106.39" stroke="#B4A57F" stroke-width="3" stroke-linecap="round" stroke-linejoin="round"/>
<path d="M95.0961 63.0519L112.568 43.1194C113.798 41.7332 113.666 39.6319 112.275 38.4062L104.015 31.1395C98.5084 37.3118 89.0183 37.8955 82.7941 32.4235C76.5699 26.9516 75.9841 17.496 81.4467 11.2799L71.5759 2.58313C70.1846 1.35741 68.0757 1.48874 66.8455 2.87497L14.4597 61.9721" stroke="#B4A57F" stroke-width="3" stroke-linecap="round" stroke-linejoin="round"/>
<path d="M50.9995 20.7501L54.8512 24.1354" stroke="#B4A57F" stroke-width="3" stroke-linecap="round" stroke-linejoin="round"/>
<path d="M62.3203 30.7162L88.4473 53.713" stroke="#B4A57F" stroke-width="3" stroke-linecap="round" stroke-linejoin="round"/>
<path d="M92.1816 56.9961L96.0333 60.3814" stroke="#B4A57F" stroke-width="3" stroke-linecap="round" stroke-linejoin="round"/>
</svg>
