<svg width="75" height="99" viewBox="0 0 75 99" fill="none" xmlns="http://www.w3.org/2000/svg">
<path d="M38.9115 6.37427L45.2002 2.19078C46.4369 1.36715 48.1341 1.90316 48.6735 3.28894L51.1469 9.74721C51.5152 10.6885 52.4493 11.2899 53.4624 11.2376L61.8429 10.7277C63.4085 10.6362 64.6057 12.0612 64.2505 13.5777L62.5665 20.5851C62.3034 21.6963 62.8823 22.8206 63.9479 23.2651L71.9338 26.5465C73.4204 27.161 73.8546 29.0566 72.7626 30.2332L67.3159 36.1947C66.5134 37.0706 66.5134 38.4172 67.3159 39.3062L72.7626 45.2677C73.8414 46.4573 73.4204 48.353 71.9338 48.9544L63.9479 52.2358C62.8954 52.6672 62.3034 53.8046 62.5665 54.9158L64.2505 61.9232C64.6189 63.4266 63.4085 64.8647 61.8429 64.7732L53.4624 64.2633C52.4493 64.198 51.5152 64.7993 51.1469 65.7537L48.6735 72.212C48.1341 73.5977 46.4501 74.1338 45.2002 73.3101L38.9115 69.1266C38.1222 68.6037 37.1091 68.6037 36.3198 69.1266L30.0311 73.3101C28.7944 74.1338 27.0972 73.5977 26.5578 72.212L24.0844 65.7537C23.716 64.8124 22.782 64.211 21.7689 64.2633L13.3884 64.7732C11.8228 64.8647 10.6256 63.4397 10.9808 61.9232L12.6648 54.9158C12.9279 53.8046 12.349 52.6803 11.2834 52.2358L3.29752 48.9544C1.81086 48.3399 1.3767 46.4443 2.46867 45.2677L7.91537 39.3062C8.7179 38.4303 8.7179 37.0837 7.91537 36.1947L2.45552 30.2071C1.3767 29.0174 1.7977 27.1218 3.28436 26.5204L11.2702 23.239C12.3227 22.8075 12.9147 21.6702 12.6516 20.5589L10.9676 13.5516C10.5992 12.0481 11.8096 10.6101 13.3752 10.7016L21.7558 11.2114C22.7688 11.2768 23.7029 10.6754 24.0713 9.72106L26.5446 3.2628C27.0841 1.87701 28.7681 1.341 30.0179 2.16463L36.3066 6.34812C37.096 6.87106 38.109 6.87106 38.8984 6.34812L38.9115 6.37427Z" stroke="#B4A57F" stroke-width="3" stroke-linecap="round" stroke-linejoin="round"/>
<path d="M37.6967 60.2927C50.0417 60.2927 60.0492 50.3482 60.0492 38.081C60.0492 25.8138 50.0417 15.8693 37.6967 15.8693C25.3518 15.8693 15.3442 25.8138 15.3442 38.081C15.3442 50.3482 25.3518 60.2927 37.6967 60.2927Z" stroke="#B4A57F" stroke-width="3" stroke-linecap="round" stroke-linejoin="round"/>
<path d="M16.499 69.5928L8.21851 92.4256L8.48306 92.473L22.5705 86.5446L30.851 96.6304L31.1156 96.6778L37.5839 78.8642L44.039 96.6778L44.3168 96.6304L52.584 86.5446L66.6715 92.473L66.936 92.4256L58.5497 69.2614" stroke="#B4A57F" stroke-width="3" stroke-linecap="round" stroke-linejoin="round"/>
</svg>
