<svg width="338" height="126" viewBox="0 0 338 126" fill="none" xmlns="http://www.w3.org/2000/svg">
<path d="M199.625 44.5054C194.228 44.5054 190.453 47.7261 190.453 53.1277C190.453 58.528 194.228 61.7486 199.625 61.7486C205.022 61.7486 208.797 58.6281 208.797 53.1277C208.797 47.6273 205.043 44.5054 199.625 44.5054ZM232.881 44.9046H228.984C228.773 44.9046 228.595 45.081 228.595 45.2912V60.9741C228.595 61.1843 228.773 61.3608 228.984 61.3608H240.787C240.998 61.3608 241.177 61.1843 241.177 60.9741V57.7973C241.177 57.587 240.998 57.4106 240.787 57.4106H233.658C233.447 57.4106 233.27 57.233 233.27 57.0227V45.2912C233.27 45.081 233.092 44.9046 232.881 44.9046ZM225.698 50.5701C225.698 47.6047 223.498 44.9046 219.279 44.9046H211.595C211.384 44.9046 211.207 45.081 211.207 45.2912V60.9741C211.207 61.1843 211.384 61.3608 211.595 61.3608H215.493C215.704 61.3608 215.881 61.1843 215.881 60.9741V56.0268H217.514L221.245 61.2069C221.323 61.3057 221.433 61.3608 221.555 61.3608H226.496V61.0842L222.488 55.9054C222.343 55.7165 222.421 55.4399 222.632 55.3298C225.053 54.1236 225.686 52.4858 225.686 50.5701H225.698ZM250.292 44.9046H243.608C243.397 44.9046 243.219 45.081 243.219 45.2912V60.9741C243.219 61.1843 243.397 61.3608 243.608 61.3608H250.292C256.211 61.3608 258.92 57.5545 258.92 53.0163C258.92 48.4793 256.11 44.9046 250.292 44.9046ZM183.169 50.5376V50.5927C182.792 51.954 182.492 53.2603 182.258 54.499L179.205 45.1698C179.15 45.0147 179.005 44.9046 178.838 44.9046H176.173C176.008 44.9046 175.852 45.0147 175.807 45.1698L172.853 54.489C172.621 53.2716 172.376 51.9315 171.977 50.6815L169.944 45.1473C169.889 44.9922 169.744 44.8933 169.577 44.8933H165.303C165.037 44.8933 164.847 45.1586 164.948 45.4138L170.81 61.073C170.866 61.2281 171.01 61.3282 171.166 61.3282H174.397C174.564 61.3282 174.708 61.2281 174.763 61.073L177.151 54.444C177.273 54.1124 177.75 54.1011 177.872 54.444L180.337 61.073C180.393 61.2281 180.537 61.3282 180.704 61.3282H183.968C184.135 61.3282 184.279 61.2281 184.334 61.073L190.064 45.4138C190.153 45.1586 189.976 44.8933 189.699 44.8933H185.423C185.257 44.8933 185.113 44.9922 185.056 45.1473L183.169 50.5376ZM199.481 57.786C196.916 57.7197 195.128 55.8278 195.128 53.1389C195.128 50.4488 196.971 48.4906 199.636 48.4906C202.301 48.4906 203.889 50.0834 204.112 52.5734C204.355 55.3411 202.267 57.8636 199.481 57.786ZM250.292 57.4319H247.839V48.7884H250.292C253.147 48.7884 254.3 50.714 254.3 52.9725C254.3 55.2297 253.268 57.4319 250.292 57.4319ZM219.346 52.5634H216.281C216.07 52.5634 215.892 52.3857 215.892 52.1755V48.9986C215.892 48.7884 216.07 48.612 216.281 48.612H219.29C220.512 48.612 221.111 49.6192 221.111 50.659C221.111 51.7 220.567 52.5634 219.346 52.5634ZM173.167 36.0058C173.167 32.2209 169.747 30.9046 166.472 30.5505C164.838 30.384 163.74 30.2176 163.74 29.089C163.74 28.2144 164.85 27.8716 165.982 27.8716C167.304 27.8716 168.503 28.1043 169.559 28.8012C169.724 28.9126 169.935 28.8901 170.058 28.7349L171.901 26.3889C172.034 26.2124 172.002 25.9572 171.823 25.8246C169.636 24.253 167.171 23.8877 163.74 24.253C161.041 24.5408 158.909 26.8869 159.076 29.5758C159.31 33.2731 162.319 34.1252 165.782 34.4455C167.604 34.612 168.548 35.1325 168.548 35.9508C168.548 36.8692 167.482 37.4122 165.949 37.4122C164.639 37.4122 162.952 37.157 161.408 35.8181C161.252 35.6743 161.008 35.6855 160.864 35.8407L158.788 38.2193C158.654 38.3744 158.666 38.6184 158.809 38.7623C160.997 40.9319 163.073 41.4074 165.927 41.3849C169.625 41.3636 173.167 39.7583 173.167 36.0284V36.0058ZM235.45 24.0428C230.053 24.0428 226.278 27.2635 226.278 32.6638C226.278 38.0654 230.053 41.286 235.45 41.286C240.846 41.286 244.621 38.1642 244.621 32.6638C244.621 27.1634 240.868 24.0428 235.45 24.0428ZM185.615 30.7269H180.44C180.229 30.7269 180.051 30.5505 180.051 30.3403V24.8499C180.051 24.6396 179.874 24.4632 179.663 24.4632H175.765C175.554 24.4632 175.376 24.6396 175.376 24.8499V40.5328C175.376 40.743 175.554 40.9194 175.765 40.9194H179.663C179.874 40.9194 180.051 40.743 180.051 40.5328V35.0762C180.051 34.866 180.229 34.6895 180.44 34.6895H185.615C185.826 34.6895 186.003 34.866 186.003 35.0762V40.5328C186.003 40.743 186.181 40.9194 186.392 40.9194H190.245C190.456 40.9194 190.634 40.743 190.634 40.5328V24.8499C190.634 24.6396 190.456 24.4632 190.245 24.4632H186.392C186.181 24.4632 186.003 24.6396 186.003 24.8499V30.3403C186.003 30.5505 185.826 30.7269 185.615 30.7269ZM260.489 24.5959L256.569 29.6321C256.413 29.831 256.113 29.831 255.959 29.6321L252.038 24.5959C251.96 24.507 251.85 24.452 251.738 24.452H247.431C247.219 24.452 247.042 24.6296 247.042 24.8399V40.5215C247.042 40.7317 247.219 40.9094 247.431 40.9094H251.284C251.494 40.9094 251.671 40.7317 251.671 40.5215V32.1883C251.671 31.8342 252.127 31.6678 252.349 31.9443L255.792 36.0834H256.613L260.157 31.9005C260.389 31.624 260.833 31.7892 260.833 32.1433V40.5103C260.833 40.7205 261.011 40.8981 261.222 40.8981H265.075C265.286 40.8981 265.464 40.7205 265.464 40.5103V24.8286C265.464 24.6184 265.286 24.4407 265.075 24.4407H260.789C260.666 24.4407 260.556 24.4958 260.489 24.5846V24.5959ZM198.24 38.198H205.102C205.258 38.198 205.402 38.2968 205.457 38.4407L206.346 40.6654C206.401 40.8093 206.546 40.9094 206.701 40.9094H210.843C211.12 40.9094 211.309 40.6216 211.198 40.3664L204.158 24.6847C204.092 24.5521 203.958 24.452 203.803 24.452H199.583C199.428 24.452 199.295 24.5408 199.228 24.6734L192.165 40.3551C192.055 40.6104 192.232 40.8981 192.521 40.8981H196.618C196.774 40.8981 196.918 40.798 196.974 40.6542L197.862 38.4295C197.918 38.2856 198.062 38.1867 198.218 38.1867L198.24 38.198ZM224.945 36.9468H217.817C217.606 36.9468 217.427 36.7703 217.427 36.5601V24.8173C217.427 24.6071 217.249 24.4294 217.038 24.4294H213.142C212.931 24.4294 212.752 24.6071 212.752 24.8173V40.5002C212.752 40.7105 212.931 40.8869 213.142 40.8869H224.945C225.155 40.8869 225.334 40.7105 225.334 40.5002V37.3234C225.334 37.1132 225.155 36.9355 224.945 36.9355V36.9468ZM235.294 37.3234C232.729 37.2458 230.941 35.3639 230.941 32.6751C230.941 29.9862 232.784 28.0155 235.45 28.0155C238.115 28.0155 239.701 29.6095 239.924 32.0995C240.168 34.866 238.081 37.401 235.294 37.3121V37.3234ZM202.038 29.9411L203.569 33.7711C203.67 34.0251 203.481 34.3016 203.214 34.3016H200.127C199.85 34.3016 199.673 34.0251 199.772 33.7711L201.327 29.9411C201.46 29.6208 201.915 29.6208 202.038 29.9411Z" fill="white" fill-opacity="0.9"/>
<path d="M300.859 125.484L307.081 93.2777C307.78 89.6803 308.479 84.2754 308.846 81.0196C308.864 80.8676 308.992 80.7533 309.144 80.7533C310.576 80.7533 317.254 80.7533 317.254 80.7533L316.656 85.6445H316.776C319.408 82.1856 323.118 80.3956 326.948 80.3956C333.889 80.3956 337.241 85.8825 337.241 92.4439C337.241 103.418 329.94 113.437 318.809 113.437C316.297 113.437 314.023 112.84 312.947 112.125H312.707L310.194 125.484H300.859ZM112.129 110.813C108.418 112.721 103.871 113.318 100.281 113.318C91.3041 113.318 86.637 108.188 86.637 99.9588C86.637 90.2962 93.6978 80.2759 105.187 80.2759C111.65 80.2759 116.197 83.8545 116.197 89.8188C116.197 97.8111 108.298 100.793 95.4937 100.435C95.6124 101.39 95.8526 102.821 96.5704 103.656C97.7672 105.326 99.922 106.161 102.675 106.161C106.145 106.161 109.016 105.326 111.53 104.133L112.129 110.813ZM181.183 93.2777C181.183 104.849 173.164 113.318 162.274 113.318C154.255 113.318 148.869 108.069 148.869 100.197C148.869 89.223 156.528 80.1576 167.779 80.1576C176.275 80.1576 181.183 86.0022 181.183 93.2777ZM228.693 104.253C230.488 105.206 233.84 106.399 236.951 106.399C239.585 106.399 241.021 105.087 241.021 103.536C241.021 101.985 239.944 100.912 237.07 99.4814C233.481 97.6914 230.369 95.0677 230.369 91.0117C230.369 84.4516 236.113 80.0379 244.371 80.0379C248.081 80.0379 250.953 80.873 252.51 81.7081L250.236 88.2682C248.919 87.6724 246.644 86.9557 243.892 86.9557C241.379 86.9557 239.704 88.0302 239.704 89.6991C239.704 91.0117 241.021 92.0848 243.533 93.2777C247.003 95.0677 250.714 97.5731 250.714 101.985C250.714 109.262 244.491 113.197 236.113 113.079C232.044 112.961 228.335 112.006 226.42 110.574L228.693 104.253ZM252.989 112.602L262.323 64.138H271.657L267.469 85.0474H267.589C270.222 82.1842 273.572 80.2759 277.76 80.2759C282.667 80.2759 285.779 83.3771 285.779 88.864C285.779 90.2962 285.54 92.8003 285.181 94.5902L281.711 112.721H272.375L275.727 95.4254C275.966 94.2325 276.086 92.8003 276.086 91.4891C276.086 89.3414 275.248 87.9105 272.854 87.9105C269.504 87.9105 266.271 91.9665 265.076 98.2872L262.323 112.84H252.989V112.602ZM64.2578 69.0641H89.8685L88.3128 77.055H72.1565L70.1218 87.3134H85.4402L83.8845 95.186H68.6861L65.3345 112.602H56.0002L64.2578 69.0641ZM301.642 88.864L297.149 112.602H287.814C287.814 112.602 290.789 97.0136 290.91 96.6182C295.916 94.4073 299.617 91.0251 301.642 88.864ZM132.585 77.1048L125.772 112.602H116.556L122.935 79.0171C126.287 78.7912 129.521 78.1363 132.585 77.1048ZM152.227 62.0979L141.449 112.602H132.115L140.48 73.3971C145.158 70.5098 149.169 66.6488 152.227 62.0979ZM193.748 80.9913L193.869 94.3509C193.869 97.9295 193.748 100.912 193.508 104.491H193.628C194.705 101.15 196.142 97.9295 197.578 94.7099L203.801 80.9913H211.46L212.298 94.2325C212.417 97.9295 212.537 101.032 212.417 104.491H212.657C213.734 101.032 214.811 97.8111 216.128 94.1128L221.633 80.9913H231.087L215.649 112.602H206.912L205.954 101.628C205.717 98.2872 205.717 95.186 205.717 91.4891H205.595C203.921 95.9015 203.083 98.2872 201.886 101.15L196.501 112.602H187.644L184.294 80.9913H193.748ZM158.444 100.077C158.444 103.775 160.238 106.279 163.589 106.279C168.615 106.279 171.488 98.7659 171.488 93.3974C171.488 90.5356 170.171 87.4331 166.462 87.4331C161.076 87.3147 158.444 95.186 158.444 100.077ZM314.262 104.849C315.339 105.803 316.656 106.279 318.571 106.279C323.598 106.279 327.427 99.2433 327.427 93.0397C327.427 90.5342 326.35 87.9105 323.358 87.9105C319.887 87.9105 316.656 91.8468 315.459 98.0505L314.262 104.849ZM103.871 87.0754C99.5618 87.0754 96.9293 90.6539 96.3316 93.6354C103.631 93.7551 107.342 92.6819 107.342 89.6991C107.342 88.1485 106.025 87.0754 103.871 87.0754ZM297.203 88.3005C294.569 88.3005 292.536 86.3922 292.536 83.6487C292.536 80.4279 295.049 78.4012 297.921 78.4012C300.674 78.4012 302.707 80.1898 302.707 83.053C302.707 86.3922 300.195 88.3005 297.203 88.3005Z" fill="white" fill-opacity="0.9"/>
<path d="M147.959 24.9062C144.837 25.7524 142.195 27.3087 139.411 28.9587C138.177 29.6908 136.902 30.4472 135.586 31.1319C132.097 32.9469 129.265 33.8309 126.932 33.8309C124.603 33.8309 122.702 32.9406 121.282 31.1878C120.503 30.2207 119.862 29.1559 119.242 28.1255C118.329 26.6087 117.466 25.1756 116.292 24.2475C115.198 23.3787 113.867 22.9002 112.545 22.9002C110.243 22.9002 108.444 24.417 107.892 26.7449C110.092 27.9425 111.599 29.5643 111.831 31.4657C112.005 32.9045 111.466 34.2828 110.35 35.2494C108.966 36.439 107.42 37.0169 105.622 37.0169C103.114 37.0169 100.526 35.8798 98.0238 34.7805C96.5666 34.1427 95.1917 33.5389 93.8564 33.1587C92.1595 32.687 90.7902 32.469 89.5546 32.469C89.5314 32.469 89.5099 32.4695 89.4877 32.4695C88.7566 35.1398 88.3593 37.9456 88.3593 40.8418C88.3593 58.4083 102.695 72.7012 120.316 72.7012C137.933 72.7012 152.265 58.4083 152.265 40.8418C152.265 35.0381 150.693 29.5965 147.959 24.9062ZM139.842 50.0157L139.752 49.7937C139.031 48.0928 138.045 46.471 136.818 44.9695C133.131 47.2991 129.879 49.0198 126.204 49.8236C126.907 52.7475 129.161 55.1534 133.655 57.8061L134.403 58.2434C135.964 59.1506 136.61 59.5274 136.573 60.0973C136.537 60.6701 135.877 60.9475 134.113 61.6881C133.832 61.8056 133.523 61.9355 133.186 62.0795C129.262 63.7545 125.137 64.6041 120.919 64.6041C117.494 64.6041 113.985 64.038 110.494 62.9212C109.91 62.732 109.23 62.4456 109.145 61.8976C109.063 61.3508 109.633 60.9435 109.822 60.8091C113.769 58.0044 115.461 54.6314 114.609 51.285C109.748 50.3851 106.053 49.2745 102.65 47.6883L102.317 47.5279L103.708 45.4073L103.94 45.5468C107.488 47.1404 110.869 48.0205 113.712 48.0956H115.932L116.202 48.086L116.278 48.3588C116.588 49.4898 116.734 50.7715 116.7 52.0696C116.62 55.1506 115.411 58.1309 113.385 60.2493C113.042 60.6063 112.901 60.7888 112.852 60.8803C113.013 60.9639 113.432 61.0644 113.626 61.1102C116.216 61.7412 118.565 62.0485 120.81 62.0485C123.608 62.0485 126.215 61.5768 128.772 60.6074L129.042 60.5052C130.277 60.0363 131.27 59.6618 131.471 59.4528C131.37 59.3048 130.96 59.0054 130.595 58.7376C130.172 58.4286 129.648 58.0417 129.035 57.5282C126.555 55.4471 125.133 52.9006 124.688 49.744C124.688 49.744 124.592 49.0271 124.578 48.7063C124.568 48.5972 124.564 48.5091 124.564 48.4227V47.4059L124.86 47.3217C128.124 46.5563 131.575 45.0299 134.863 42.9003C130.93 39.2612 125.688 37.1841 120.405 37.1841C118.492 37.1841 116.575 37.4524 114.709 37.9812C109.637 39.4115 105.235 42.4297 102.814 46.2371L102.046 47.4319L101.799 47.2895C98.4064 45.5824 95.5731 43.146 92.8855 39.625C92.4752 39.1127 92.3272 38.5918 92.4973 38.2393C92.5959 38.0337 92.7959 37.9111 93.0317 37.9111C93.3406 37.9111 93.6999 38.1179 94.0972 38.5252C95.98 40.443 98.6002 42.8681 102.264 44.7345C105.347 40.9186 109.504 38.0077 114.306 36.3091C116.984 35.3646 119.739 34.8844 122.494 34.8844C132.153 34.8844 140.495 40.6339 143.747 49.5321L143.906 50.0202L139.842 50.0157ZM146.084 35.2036L146.035 35.3296C144.506 37.7343 143.188 39.4584 140.236 42.2049L139.989 42.4258L138.102 40.5757L138.379 40.3391C140.561 38.5212 142.759 36.6085 144.046 34.9217C144.365 34.4822 144.824 34.2156 145.268 34.2156C145.539 34.2156 145.772 34.3179 145.927 34.5009C146.079 34.6828 146.135 34.9341 146.084 35.2036ZM102.021 33.8004C103.797 34.4794 105.35 34.8234 106.634 34.8234C108.736 34.8234 110.018 33.875 110.064 32.2831C110.112 30.5172 108.544 28.535 106.129 28.3989L105.733 28.3712L105.797 27.9747C106.674 23.4866 109.344 20.6994 112.764 20.6994C115.733 20.6994 118.683 22.7731 120.858 26.3896C122.352 28.9966 123.791 30.5664 125.14 31.0646C125.868 31.3386 126.636 31.4708 127.488 31.4708C129.93 31.4708 132.64 30.3365 134.966 29.2265C136.275 28.6006 137.76 27.7803 139.33 26.9127C141.877 25.5038 144.5 24.0566 146.863 23.146C141.124 14.6228 131.368 8.99989 120.316 8.99989C106.513 8.99989 94.7269 17.7665 90.2676 30.0026C93.9306 30.6274 98.6971 32.4989 101.118 33.4479C101.473 33.5874 101.777 33.7061 102.021 33.8004ZM111.56 27.2911C110.96 27.2911 110.469 26.7788 110.469 26.1495C110.469 25.5219 110.96 25.0107 111.56 25.0107C112.163 25.0107 112.65 25.5219 112.65 26.1495C112.65 26.7788 112.163 27.2911 111.56 27.2911Z" fill="#DFC387"/>
<path d="M5.021 51.32C3.96033 51.32 3.086 51.1193 2.398 50.718C1.68133 50.3453 1.17967 49.815 0.893 49.127C0.663667 48.697 0.549 48.1237 0.549 47.407C0.549 46.4897 0.792667 45.4433 1.28 44.268C1.76733 43.1213 2.527 41.903 3.559 40.613C4.763 39.1223 6.33967 37.6173 8.289 36.098C10.267 34.55 12.3883 33.131 14.653 31.841C16.889 30.5797 19.1537 29.5047 21.447 28.616C23.769 27.7273 25.876 27.1683 27.768 26.939C28.3987 25.5057 28.886 23.9863 29.23 22.381C29.574 20.7757 29.746 19.3137 29.746 17.995C29.746 17.1637 29.66 16.4327 29.488 15.802C29.3447 15.1427 29.1153 14.6553 28.8 14.34C27.3667 14.4833 25.9047 14.7413 24.414 15.114C22.9233 15.4867 21.5187 15.9883 20.2 16.619C18.91 17.2497 17.8063 18.0237 16.889 18.941C16.0003 19.8583 15.4413 20.9333 15.212 22.166C15.212 22.2807 15.1977 22.3953 15.169 22.51C15.169 22.6247 15.169 22.7537 15.169 22.897C15.169 23.1263 15.212 23.37 15.298 23.628C15.4127 23.886 15.6277 24.101 15.943 24.273C16.115 24.3877 16.1723 24.4737 16.115 24.531C16.0577 24.5883 15.9717 24.6027 15.857 24.574C15.4843 24.488 15.0113 24.273 14.438 23.929C13.8933 23.585 13.4203 23.1263 13.019 22.553C12.6177 21.951 12.4887 21.2487 12.632 20.446C12.89 19.1273 13.535 18.038 14.567 17.178C15.599 16.318 16.846 15.6587 18.308 15.2C19.7987 14.7127 21.361 14.3687 22.995 14.168C24.629 13.9387 26.177 13.7953 27.639 13.738C27.4957 13.652 27.424 13.5373 27.424 13.394C27.424 13.222 27.51 13.1217 27.682 13.093C27.9113 12.9497 28.2123 12.878 28.585 12.878C28.9003 12.878 29.2157 12.9497 29.531 13.093C29.875 13.2077 30.1903 13.4227 30.477 13.738C30.7063 13.738 30.9213 13.7523 31.122 13.781C31.3513 13.781 31.5807 13.781 31.81 13.781L32.584 13.867C32.8993 13.8957 33.2003 13.9243 33.487 13.953C33.7737 13.953 34.0317 13.953 34.261 13.953C34.691 13.953 35.0493 13.9817 35.336 14.039C35.68 14.125 35.852 14.2397 35.852 14.383C35.852 14.5837 35.5367 14.641 34.906 14.555C34.3327 14.4117 33.702 14.3257 33.014 14.297C32.3547 14.2683 31.6523 14.254 30.907 14.254C31.5377 15.3147 31.853 16.7337 31.853 18.511C31.853 19.7437 31.6953 21.0767 31.38 22.51C31.0933 23.9433 30.6777 25.4053 30.133 26.896C31.0217 27.0107 31.8673 27.2257 32.67 27.541C33.4727 27.8563 34.089 28.3007 34.519 28.874C34.6623 29.046 34.734 29.2323 34.734 29.433C34.734 29.7197 34.6193 29.7197 34.39 29.433C34.132 29.175 33.7163 28.9887 33.143 28.874C32.5983 28.7593 31.982 28.6877 31.294 28.659C30.6347 28.6303 30.0183 28.6303 29.445 28.659C27.9257 32.4143 26.2487 35.6107 24.414 38.248C22.5793 40.8567 20.7303 43.021 18.867 44.741C16.975 46.461 15.126 47.794 13.32 48.74C11.514 49.686 9.86567 50.374 8.375 50.804C7.14233 51.148 6.02433 51.32 5.021 51.32ZM4.376 50.03C4.978 50.03 5.63733 49.901 6.354 49.643C7.09933 49.4137 7.88767 49.0267 8.719 48.482C10.9837 47.02 13.062 45.429 14.954 43.709C16.8747 42.0177 18.5947 40.2977 20.114 38.549C21.6333 36.829 22.952 35.152 24.07 33.518C25.188 31.8553 26.091 30.3503 26.779 29.003C25.145 29.347 23.3533 29.8773 21.404 30.594C19.4547 31.3107 17.5053 32.185 15.556 33.217C13.6067 34.249 11.729 35.41 9.923 36.7C8.14567 37.9613 6.59767 39.3087 5.279 40.742C4.01767 42.0893 3.10033 43.322 2.527 44.44C1.95367 45.5867 1.667 46.5757 1.667 47.407C1.667 48.2097 1.91067 48.8403 2.398 49.299C2.88533 49.7863 3.54467 50.03 4.376 50.03ZM37.7514 41.172C36.7767 41.172 35.9597 40.7563 35.3004 39.925C34.6697 39.0937 34.3544 38.033 34.3544 36.743C34.3544 35.711 34.5264 34.6933 34.8704 33.69C35.2144 32.7153 35.6731 31.7837 36.2464 30.895C36.8484 30.0063 37.5221 29.175 38.2674 28.401C39.2421 27.3977 40.3457 26.5233 41.5784 25.778C42.8397 25.0327 43.9864 24.66 45.0184 24.66C45.8211 24.66 46.4374 24.8607 46.8674 25.262C47.3261 25.6347 47.5554 26.0933 47.5554 26.638C47.5554 26.982 47.4407 27.3547 47.2114 27.756C47.9567 27.842 48.6877 27.885 49.4044 27.885C49.9491 27.885 50.4937 27.8563 51.0384 27.799C51.5831 27.7417 52.1277 27.6557 52.6724 27.541H52.8444C53.0737 27.541 53.1884 27.5983 53.1884 27.713C53.1884 27.8277 53.0594 27.928 52.8014 28.014C52.5147 28.1287 52.0417 28.2433 51.3824 28.358C50.7231 28.4727 50.0351 28.573 49.3184 28.659C48.6017 28.7163 47.9567 28.745 47.3834 28.745C47.1827 28.745 47.0107 28.745 46.8674 28.745C46.7241 28.745 46.5951 28.7307 46.4804 28.702L46.0504 28.917C46.3944 29.4043 46.5664 30.078 46.5664 30.938C46.5664 32.0847 46.2797 33.26 45.7064 34.464C45.1617 35.6393 44.4307 36.743 43.5134 37.775C42.6247 38.7783 41.6644 39.5953 40.6324 40.226C39.6291 40.8567 38.6687 41.172 37.7514 41.172ZM38.1384 40.14C38.9124 40.14 39.6721 39.8677 40.4174 39.323C41.1627 38.7497 41.8364 38.0187 42.4384 37.13C43.0691 36.2127 43.5851 35.238 43.9864 34.206C44.4164 33.1453 44.7031 32.1277 44.8464 31.153C44.8751 30.981 44.8894 30.8233 44.8894 30.68C44.8894 30.508 44.8894 30.3503 44.8894 30.207C44.8894 29.949 44.8751 29.7197 44.8464 29.519C44.8177 29.2897 44.7604 29.1177 44.6744 29.003C44.6171 29.003 44.5741 28.9887 44.5454 28.96C44.2014 28.9027 43.9434 28.8167 43.7714 28.702C43.6281 28.5873 43.4561 28.4583 43.2554 28.315C43.1407 28.1717 43.0834 27.9997 43.0834 27.799C43.0834 27.5983 43.1551 27.4407 43.2984 27.326C43.4704 27.2113 43.6567 27.1827 43.8574 27.24C44.5741 27.3833 45.3481 27.5123 46.1794 27.627C46.4661 27.1397 46.6094 26.6953 46.6094 26.294C46.6094 25.606 46.0934 25.262 45.0614 25.262C44.4307 25.262 43.7714 25.5057 43.0834 25.993C42.4241 26.4517 41.7647 27.068 41.1054 27.842C40.4461 28.5873 39.8154 29.4187 39.2134 30.336C38.6114 31.2247 38.0954 32.099 37.6654 32.959C37.3787 33.5323 37.1207 34.2347 36.8914 35.066C36.6907 35.8973 36.5904 36.7 36.5904 37.474C36.5904 38.1907 36.7051 38.8213 36.9344 39.366C37.1924 39.882 37.5937 40.14 38.1384 40.14ZM57.5317 22.209C56.7864 22.209 56.4137 21.8507 56.4137 21.134C56.4137 20.704 56.5714 20.3457 56.8867 20.059C57.2021 19.7437 57.5461 19.586 57.9187 19.586C58.2914 19.586 58.5781 19.715 58.7787 19.973C59.0081 20.231 59.0941 20.5463 59.0367 20.919C58.9507 21.2917 58.7644 21.607 58.4777 21.865C58.2197 22.0943 57.9044 22.209 57.5317 22.209ZM50.5657 41C49.0751 41 48.3297 40.0683 48.3297 38.205C48.3297 37.8037 48.3727 37.345 48.4587 36.829C48.5734 36.227 48.7884 35.5103 49.1037 34.679C49.4477 33.819 49.8204 32.9733 50.2217 32.142C50.6517 31.282 51.0387 30.551 51.3827 29.949C51.6694 29.4903 51.9991 28.9457 52.3717 28.315C52.7444 27.6843 53.1027 27.0967 53.4467 26.552C53.7907 26.0073 54.0057 25.649 54.0917 25.477C54.2637 25.1043 54.6077 24.8177 55.1237 24.617C55.6397 24.3877 56.0984 24.273 56.4997 24.273C56.9584 24.273 57.1877 24.402 57.1877 24.66C57.1877 24.832 57.1304 24.9897 57.0157 25.133C56.4711 26.0217 55.8261 27.0537 55.0807 28.229C54.3641 29.4043 53.6617 30.6083 52.9737 31.841C52.2857 33.0737 51.7124 34.249 51.2537 35.367C50.7951 36.485 50.5657 37.4453 50.5657 38.248C50.5657 38.678 50.6374 39.022 50.7807 39.28C50.9527 39.538 51.2537 39.667 51.6837 39.667C52.1424 39.667 52.6584 39.452 53.2317 39.022C53.8337 38.5633 54.4071 38.0617 54.9517 37.517C55.5251 36.9437 55.9551 36.4993 56.2417 36.184L57.1017 35.281C57.2451 35.1377 57.3741 34.9943 57.4887 34.851C57.6034 34.679 57.7181 34.5213 57.8327 34.378C57.9187 34.292 57.9904 34.249 58.0477 34.249C58.2197 34.249 58.3057 34.378 58.3057 34.636C58.3057 34.7793 58.2484 34.9083 58.1337 35.023C57.8184 35.4243 57.5031 35.8113 57.1877 36.184C56.8724 36.5567 56.5427 36.9293 56.1987 37.302C55.4821 38.162 54.6507 38.9933 53.7047 39.796C52.7587 40.5987 51.7124 41 50.5657 41ZM66.1371 41.043C65.6498 41.043 65.3058 40.8567 65.1051 40.484C64.9044 40.1113 64.8041 39.667 64.8041 39.151C64.8041 38.2337 65.0478 37.1873 65.5351 36.012C66.0511 34.8367 66.6388 33.6327 67.2981 32.4C67.9574 31.1673 68.5308 30.0063 69.0181 28.917C69.5341 27.799 69.7921 26.853 69.7921 26.079C69.7921 25.7063 69.7204 25.4053 69.5771 25.176C69.4624 24.9467 69.2761 24.832 69.0181 24.832C68.6741 24.832 68.2584 25.0183 67.7711 25.391C67.2264 25.7637 66.6101 26.38 65.9221 27.24L64.3311 29.218C63.4998 30.25 62.6541 31.3537 61.7941 32.529C60.9628 33.6757 60.2031 34.7507 59.5151 35.754C58.8558 36.7573 58.3684 37.56 58.0531 38.162C57.7951 38.6207 57.4941 38.85 57.1501 38.85C56.9494 38.85 56.7631 38.7497 56.5911 38.549C56.4191 38.3483 56.3331 38.0903 56.3331 37.775C56.3331 37.5743 56.3761 37.345 56.4621 37.087C57.4654 35.1663 58.4114 33.1167 59.3001 30.938C60.2174 28.7593 61.1204 26.7813 62.0091 25.004C62.2671 24.5167 62.6971 24.101 63.2991 23.757C63.9011 23.3843 64.4314 23.198 64.8901 23.198C65.3201 23.198 65.5351 23.3557 65.5351 23.671C65.5351 23.843 65.4061 24.1727 65.1481 24.66C64.8328 25.1473 64.4458 25.778 63.9871 26.552C63.5284 27.326 63.0554 28.143 62.5681 29.003C62.0808 29.863 61.6221 30.68 61.1921 31.454C60.7908 32.228 60.4898 32.8587 60.2891 33.346C60.6044 32.916 61.0344 32.271 61.5791 31.411C62.1524 30.551 62.9264 29.5477 63.9011 28.401L65.2771 26.767C66.1944 25.6777 67.0401 24.9323 67.8141 24.531C68.5881 24.1297 69.3048 23.929 69.9641 23.929C70.4801 23.929 70.9244 24.058 71.2971 24.316C71.6698 24.574 71.8561 25.0183 71.8561 25.649C71.8561 26.3943 71.6984 27.1397 71.3831 27.885C71.0678 28.6017 70.8098 29.175 70.6091 29.605C70.4084 30.0637 70.1218 30.6943 69.7491 31.497C69.3764 32.2997 69.0038 33.1597 68.6311 34.077C68.2584 34.9943 67.9431 35.8543 67.6851 36.657C67.4271 37.4597 67.2981 38.076 67.2981 38.506C67.2981 38.8787 67.4128 39.065 67.6421 39.065C67.9288 39.065 68.3014 38.9217 68.7601 38.635C69.2474 38.3197 69.7204 37.9757 70.1791 37.603C70.6664 37.2303 71.0391 36.9293 71.2971 36.7C72.2431 35.84 73.2034 34.8367 74.1781 33.69C74.3214 33.518 74.4361 33.432 74.5221 33.432C74.6081 33.432 74.6511 33.518 74.6511 33.69C74.6511 33.776 74.6081 33.8907 74.5221 34.034C74.4648 34.1773 74.3931 34.335 74.3071 34.507C74.1351 34.7937 73.8628 35.1807 73.4901 35.668C73.1174 36.1267 72.7304 36.571 72.3291 37.001C71.7271 37.6603 71.0534 38.291 70.3081 38.893C69.5914 39.495 68.7888 40.0397 67.9001 40.527C67.6708 40.6417 67.4558 40.742 67.2551 40.828C67.0831 40.8853 66.9398 40.9283 66.8251 40.957C66.7104 40.9857 66.5958 41 66.4811 41C66.3664 41.0287 66.2518 41.043 66.1371 41.043Z" fill="white"/>
</svg>
