<svg width="35" height="35" viewBox="0 0 35 35" fill="none" xmlns="http://www.w3.org/2000/svg">
<path d="M17.2808 11.9366C14.1697 11.9366 11.6307 14.4756 11.6307 17.5868C11.6307 20.698 14.1697 23.237 17.2808 23.237C20.392 23.237 22.931 20.698 22.931 17.5868C22.931 14.4756 20.392 11.9366 17.2808 11.9366ZM34.227 17.5868C34.227 15.247 34.2482 12.9284 34.1168 10.5929C33.9854 7.88009 33.3665 5.47249 31.3829 3.48876C29.3949 1.5008 26.9916 0.886179 24.2789 0.754778C21.9391 0.623378 19.6206 0.644571 17.2851 0.644571C14.9453 0.644571 12.6268 0.623378 10.2913 0.754778C7.57856 0.886179 5.17101 1.50503 3.18732 3.48876C1.19939 5.47673 0.584783 7.88009 0.453385 10.5929C0.321986 12.9327 0.34318 15.2512 0.34318 17.5868C0.34318 19.9223 0.321986 22.2452 0.453385 24.5807C0.584783 27.2935 1.20363 29.7011 3.18732 31.6848C5.17525 33.6728 7.57856 34.2874 10.2913 34.4188C12.631 34.5502 14.9496 34.529 17.2851 34.529C19.6248 34.529 21.9434 34.5502 24.2789 34.4188C26.9916 34.2874 29.3992 33.6685 31.3829 31.6848C33.3708 29.6969 33.9854 27.2935 34.1168 24.5807C34.2524 22.2452 34.227 19.9266 34.227 17.5868ZM17.2808 26.2804C12.47 26.2804 8.58736 22.3978 8.58736 17.5868C8.58736 12.7758 12.47 8.89315 17.2808 8.89315C22.0917 8.89315 25.9743 12.7758 25.9743 17.5868C25.9743 22.3978 22.0917 26.2804 17.2808 26.2804ZM26.3304 10.5674C25.2071 10.5674 24.3001 9.66036 24.3001 8.53709C24.3001 7.41383 25.2071 6.50674 26.3304 6.50674C27.4536 6.50674 28.3607 7.41383 28.3607 8.53709C28.361 8.80382 28.3087 9.06799 28.2068 9.31447C28.1049 9.56096 27.9554 9.78492 27.7668 9.97352C27.5782 10.1621 27.3542 10.3117 27.1077 10.4136C26.8613 10.5155 26.5971 10.5678 26.3304 10.5674Z" fill="#DFC387"/>
</svg>
