<svg width="208" height="60" viewBox="0 0 208 60" fill="none" xmlns="http://www.w3.org/2000/svg">
<path d="M19.814 19.6624C23.2327 20.2457 27.6832 21.9982 29.945 22.8887C30.2759 23.0189 30.56 23.1309 30.7893 23.2168C32.4465 23.8522 33.8979 24.1751 35.0965 24.1751C37.0586 24.1751 38.2547 23.2871 38.299 21.7977C38.3459 20.1442 36.8814 18.2902 34.6249 18.1626L34.2549 18.1365L34.3148 17.7642C35.133 13.564 37.6267 10.9548 40.8213 10.9548C43.5912 10.9548 46.348 12.8948 48.3779 16.2825C49.7719 18.7224 51.1165 20.191 52.3751 20.6598C53.0552 20.9176 53.7717 21.0399 54.5665 21.0399C56.8465 21.0399 59.3766 19.9775 61.5472 18.9385C62.7693 18.3527 64.1555 17.5845 65.6225 16.7721C68.0016 15.4519 70.4509 14.0978 72.6554 13.2463C67.2954 5.26519 58.1858 0 47.8672 0C34.9793 0 23.9779 8.20766 19.814 19.6624Z" fill="#FEC249"/>
<path d="M42.2543 25.5656C44.7558 24.6803 47.3276 24.2324 49.8995 24.2324C58.9179 24.2324 66.7064 29.6148 69.742 37.9448L69.8906 38.4031L66.0966 38.3979L66.0133 38.1896C65.341 36.5986 64.4186 35.0805 63.2746 33.6743C59.8325 35.8564 56.7968 37.4657 53.3625 38.2182C54.0191 40.9576 56.1245 43.2074 60.3198 45.6916L61.0207 46.1004C62.4773 46.9519 63.0818 47.3034 63.0453 47.8346C63.0115 48.3736 62.3965 48.6314 60.7497 49.3241C60.4865 49.4334 60.1973 49.5558 59.8846 49.6886C56.221 51.2588 52.3671 52.053 48.4298 52.053C45.23 52.053 41.9546 51.5218 38.6949 50.4776C38.1477 50.3006 37.5145 50.0324 37.4363 49.5194C37.3555 49.009 37.8923 48.6262 38.0669 48.5012C41.754 45.8738 43.3331 42.7153 42.5383 39.5853C37.9991 38.7442 34.5492 37.7026 31.3728 36.2184L31.0627 36.07L32.363 34.0857L32.5792 34.2159C35.8937 35.7054 39.0492 36.5309 41.7045 36.6012H43.776L44.0288 36.5934L44.1017 36.8459C44.391 37.9058 44.5265 39.1062 44.4952 40.3222C44.4196 43.2048 43.2914 45.9962 41.3996 47.9778C41.0791 48.3111 40.9462 48.483 40.8993 48.5689C41.0504 48.6471 41.4413 48.7408 41.6211 48.7851C44.0418 49.3762 46.2332 49.6626 48.3282 49.6626C50.9418 49.6626 53.3729 49.2225 55.7623 48.3137L56.0125 48.22C57.1668 47.7799 58.0919 47.4284 58.2821 47.2331C58.1883 47.0951 57.8052 46.8139 57.4639 46.5639C57.0704 46.2749 56.5779 45.9129 56.0073 45.4312C53.6908 43.4834 52.3645 41.0982 51.9476 38.1453C51.9476 38.1453 51.8564 37.4735 51.8433 37.174C51.8355 37.0699 51.8303 36.9892 51.8303 36.9084V35.958L52.1065 35.8799C55.1526 35.1638 58.3759 33.7342 61.4454 31.7396C57.7714 28.3336 52.8778 26.3885 47.9478 26.3885C46.1603 26.3885 44.3701 26.6384 42.6295 27.1332C37.8923 28.4742 33.7831 31.2969 31.5213 34.8617L30.8047 35.9814L30.5754 35.8486C27.4069 34.2498 24.7621 31.9713 22.2528 28.6747C21.8697 28.1956 21.7316 27.7061 21.8906 27.378C21.9844 27.1853 22.1694 27.0707 22.3909 27.0707C22.6801 27.0707 23.0136 27.266 23.3863 27.6462C25.1451 29.4403 27.5919 31.7136 31.0106 33.4582C33.8899 29.8856 37.7698 27.1618 42.2543 25.5708M64.4733 29.5601L64.7312 29.3361C66.7689 27.6358 68.8222 25.8442 70.0235 24.2662C70.3231 23.8548 70.7505 23.6048 71.1648 23.6048C71.4175 23.6048 71.6338 23.7012 71.7797 23.873C71.9204 24.0423 71.9751 24.2793 71.9256 24.5318L71.8787 24.649C70.4508 26.8988 69.2209 28.5133 66.464 31.086L66.2347 31.2917L64.4733 29.5601ZM38.674 16.056C38.674 15.4701 39.13 14.991 39.6929 14.991C40.2557 14.991 40.7117 15.4701 40.7117 16.056C40.7117 16.6419 40.2557 17.1236 39.6929 17.1236C39.13 17.1236 38.674 16.6445 38.674 16.056ZM36.2689 16.6132C38.3223 17.7355 39.7319 19.251 39.9456 21.0321C40.1072 22.3784 39.6043 23.6699 38.5646 24.5735C37.2721 25.688 35.8286 26.227 34.1479 26.227C31.8079 26.227 29.3898 25.1646 27.0551 24.1334C25.6949 23.5345 24.4103 22.9695 23.1648 22.6153C21.5805 22.1727 20.3011 21.9696 19.1467 21.9696C19.1259 21.9696 19.1051 21.9696 19.0842 21.9722C18.4015 24.4694 18.0315 27.0967 18.0315 29.8101C18.0315 46.254 31.4171 59.6331 47.8696 59.6331C64.3221 59.6331 77.6999 46.254 77.6999 29.8101C77.6999 24.3756 76.2303 19.2823 73.6767 14.892C70.7635 15.6836 68.2959 17.1392 65.698 18.686C64.5462 19.3708 63.3554 20.0791 62.1281 20.7197C58.8684 22.42 56.2262 23.2455 54.0478 23.2455C51.8694 23.2455 50.1001 22.4122 48.7712 20.7717C48.0468 19.8656 47.4475 18.8683 46.869 17.9048C46.0169 16.4856 45.2118 15.1446 44.1148 14.2749C43.0933 13.4598 41.8504 13.012 40.6179 13.012C38.4682 13.012 36.7875 14.4337 36.2715 16.6132" fill="#FEC249"/>
<path d="M7.03545 44.9885C6.02703 44.2411 5.102 43.3896 4.27338 42.4366C1.51653 39.2728 0 35.221 0 31.0261C0 25.9848 2.16535 21.2612 5.89414 17.9855C4.79453 21.8003 4.23951 25.7557 4.23951 29.7814C4.23951 35.0518 5.17757 40.1529 7.03545 44.9859" fill="#F58538"/>
<path d="M18.0291 49.3657C16.6976 49.3657 15.2696 48.8658 14.91 48.2747C13.516 45.8087 12.3955 43.1501 11.593 40.3951L11.3324 39.5019C10.2067 35.2861 9.8341 30.9245 10.225 26.5264C10.238 26.378 10.2953 25.8025 10.3109 25.6567C10.7956 21.1701 12.0568 16.884 14.0554 12.8974L14.3628 12.3167C15.6892 9.77261 17.3073 7.38218 19.173 5.2183C19.4727 4.8902 20.3013 4.66626 21.2654 4.66626C21.9194 4.66626 22.451 4.76261 22.7924 4.86416C18.4538 9.20235 15.34 14.5925 13.7323 20.5347H13.727L13.5082 21.4097C13.3727 21.9669 13.2658 22.4434 13.1746 22.8991C12.9792 23.8808 12.8229 24.8964 12.7082 25.9171C12.6926 26.0551 12.6405 26.5915 12.6274 26.7243C12.5388 27.7529 12.4945 28.7815 12.4945 29.7814C12.4945 30.2813 12.5076 30.8047 12.5362 31.4271L12.5701 32.1718H12.5779C12.9896 38.3302 14.9934 44.2437 18.4017 49.3449C18.2975 49.3553 18.1724 49.3631 18.0265 49.3631" fill="#F58538"/>
<path d="M77.6792 49.3657C77.5333 49.3657 77.4082 49.3579 77.304 49.3475C80.7175 44.2359 82.7187 38.3276 83.1278 32.1744H83.133L83.1747 31.3099C83.2007 30.7344 83.2111 30.2449 83.2111 29.7814C83.2111 28.7789 83.1668 27.7529 83.0782 26.7269C83.0652 26.5915 83.0131 26.0551 83.0001 25.9197C82.8854 24.8938 82.7265 23.8782 82.531 22.8991C82.432 22.4096 82.3174 21.8992 82.1688 21.2925L81.9812 20.5321H81.9734C80.3631 14.5873 77.2466 9.19453 72.9133 4.86416C73.2573 4.76261 73.7862 4.66626 74.4403 4.66626C75.4044 4.66626 76.233 4.8902 76.5509 5.23392C78.401 7.37958 80.0165 9.77001 81.3454 12.3141L81.7728 13.1317C83.7036 17.0507 84.9231 21.256 85.3999 25.6489C85.4156 25.7947 85.4729 26.3728 85.4859 26.5186C85.8872 31.0104 85.4885 35.4606 84.3081 39.7571L84.1179 40.3899C83.3154 43.1449 82.1949 45.8035 80.7878 48.2903C80.4413 48.8605 79.0133 49.3605 77.6818 49.3605" fill="#F58538"/>
<path d="M88.5217 45.3061C90.4603 40.382 91.4401 35.1715 91.4401 29.784C91.4401 25.628 90.8486 21.5503 89.6812 17.6261C93.6732 20.9045 95.9975 25.7661 95.9975 31.0286C95.9975 35.2236 94.4809 39.2754 91.7241 42.4392C90.773 43.5328 89.6994 44.4937 88.519 45.3087" fill="#F58538"/>
<path d="M107.937 24.0032C111.485 24.0032 113 26.046 113 29.3776V32.0164C113 35.5059 111.323 37.3263 107.742 37.3263H105.517V46H103V24H107.934L107.937 24.0032ZM107.745 35.1289C109.617 35.1289 110.52 34.2815 110.52 32.1743V29.2519C110.52 27.2414 109.779 26.2361 107.94 26.2361H105.52V35.1289H107.745Z" fill="#F58538"/>
<path d="M116 29.4234C116 26.1258 117.651 24 120.986 24C124.32 24 126 26.1258 126 29.4234V40.5766C126 43.8426 124.349 46 120.986 46C117.622 46 116 43.8426 116 40.5766V29.4234ZM118.399 40.6998C118.399 42.6708 119.239 43.8111 120.986 43.8111C122.733 43.8111 123.573 42.6708 123.573 40.6998V29.3002C123.573 27.3576 122.761 26.1889 120.986 26.1889C119.21 26.1889 118.399 27.3608 118.399 29.3002V40.6998Z" fill="#F58538"/>
<path d="M135.078 24C138.451 24 140 26.075 140 29.4678V40.5612C140 43.925 138.451 46 135.078 46H130V24H135.078ZM135.049 43.7671C136.782 43.7671 137.62 42.6684 137.62 40.6547V29.3389C137.62 27.3284 136.785 26.2264 135.021 26.2264H132.421V43.7639H135.052L135.049 43.7671Z" fill="#F58538"/>
<path d="M154 29.4202V31.3628H151.65V29.3002C151.65 27.3576 150.855 26.1889 149.046 26.1889C147.236 26.1889 146.441 27.3608 146.441 29.3002V40.6998C146.441 42.6424 147.268 43.8111 149.046 43.8111C150.823 43.8111 151.65 42.6392 151.65 40.6998V37.8949H154V40.5766C154 43.8426 152.411 46 148.984 46C145.556 46 144 43.8426 144 40.5766V29.4234C144 26.1574 145.589 24 148.984 24C152.379 24 154 26.1574 154 29.4234" fill="#F58538"/>
<path d="M160.116 41.5697L159.267 46H157L161.221 24H164.779L169 46H166.543L165.693 41.5697H160.119H160.116ZM160.429 39.4657H165.344L162.855 26.7677L160.429 39.4657Z" fill="#F58538"/>
<path d="M181.967 29.395V29.9793H179.618V29.2718C179.618 27.3292 178.856 26.1889 177.08 26.1889C175.303 26.1889 174.541 27.3292 174.541 29.2402C174.541 34.0761 182 34.5404 182 40.6082C182 43.8742 180.379 46 176.985 46C173.591 46 172 43.8742 172 40.6082V39.3763H174.317V40.7314C174.317 42.6739 175.144 43.8111 176.92 43.8111C178.697 43.8111 179.524 42.6708 179.524 40.7314C179.524 35.9239 172.094 35.4627 172.094 29.3918C172.094 26.0658 173.682 24 177.015 24C180.347 24 181.964 26.1258 181.964 29.3918" fill="#F58538"/>
<path d="M188.839 46V26.2296H185V24H195V26.2296H191.161V46H188.839Z" fill="#F58538"/>
<path d="M207.967 29.395V29.9793H205.617V29.2718C205.617 27.3292 204.855 26.1889 203.078 26.1889C201.301 26.1889 200.539 27.3292 200.539 29.2402C200.539 34.0761 208 34.5404 208 40.6082C208 43.8742 206.382 46 202.984 46C199.585 46 198 43.8742 198 40.6082V39.3763H200.318V40.7314C200.318 42.6739 201.145 43.8111 202.922 43.8111C204.699 43.8111 205.526 42.6708 205.526 40.7314C205.526 35.9239 198.098 35.4627 198.098 29.3918C198.098 26.0658 199.686 24 203.02 24C206.353 24 207.971 26.1258 207.971 29.3918" fill="#F58538"/>
</svg>
