<svg width="192" height="74" viewBox="0 0 192 74" fill="none" xmlns="http://www.w3.org/2000/svg">
<path d="M62.3473 42.0515L52.3194 62.3104H52.2559L48.0036 42.0515H37.6583L33.3425 73.1108H40.1971L43.4974 49.2731H43.5608L48.0671 73.1108H53.2714L64.6956 49.2731H64.7591L61.4588 73.1108H68.2498L72.5656 42.0515H62.3473Z" fill="black"/>
<path d="M102.84 45.6304C101.571 44.2244 99.9838 43.1379 98.0163 42.3711C96.1123 41.6042 93.9544 41.2207 91.5426 41.2207C89.1308 41.2207 86.846 41.6042 84.6881 42.3711C82.5302 43.1379 80.6261 44.2244 78.976 45.6304C77.3258 47.0363 75.9295 48.7619 74.7871 50.8069C73.6447 52.852 72.9465 55.0888 72.5657 57.5812C72.2484 60.0736 72.3119 62.3104 72.8831 64.3554C73.4543 66.4005 74.3428 68.126 75.6122 69.532C76.8815 70.938 78.4682 72.0244 80.4357 72.7913C82.3398 73.5582 84.5611 73.9416 86.9729 73.9416C89.3847 73.9416 91.6695 73.5582 93.8274 72.7913C95.9853 72.0244 97.8894 70.938 99.5395 69.532C101.253 68.126 102.649 66.4005 103.728 64.3554C104.807 62.3104 105.569 60.0736 105.886 57.5812C106.204 55.0888 106.14 52.852 105.569 50.8069C104.998 48.8258 104.109 47.1002 102.84 45.6304ZM98.7779 57.5812C98.5875 59.0511 98.1432 60.3931 97.5086 61.6074C96.8739 62.8216 96.1123 63.9081 95.1603 64.7389C94.2082 65.6336 93.0658 66.3366 91.8599 66.8478C90.5906 67.3591 89.2578 67.6147 87.798 67.6147C86.3382 67.6147 85.0689 67.3591 83.9899 66.8478C82.911 66.3366 81.959 65.6336 81.2608 64.7389C80.5627 63.8442 80.0549 62.8216 79.7376 61.6074C79.4202 60.3931 79.4202 59.0511 79.6107 57.5812C79.8011 56.1752 80.2453 54.8331 80.88 53.555C81.5147 52.3407 82.2763 51.2543 83.2283 50.3596C84.1803 49.4648 85.3227 48.7619 86.5286 48.2506C87.798 47.7393 89.1308 47.4837 90.5906 47.4837C92.0503 47.4837 93.3197 47.7393 94.3986 48.2506C95.4776 48.7619 96.4296 49.4648 97.1278 50.3596C97.8259 51.2543 98.3337 52.3407 98.651 53.555C98.9683 54.8331 99.0318 56.1752 98.7779 57.5812Z" fill="black"/>
<path d="M128.037 42.0515L117.437 62.4382H117.374L112.55 42.0515H104.807L112.804 73.1108H118.263L135.335 42.0515H128.037Z" fill="black"/>
<path d="M136.605 42.0515L132.289 73.1108H139.08L143.396 42.0515H136.605Z" fill="black"/>
<path d="M164.15 60.457L165.038 54.1301H151.647L152.472 48.3784H166.625L167.514 42.0515H146.506L142.19 73.1108H163.959L164.848 66.7839H149.87L150.758 60.457H164.15Z" fill="black"/>
<path d="M187.188 57.8369C186.617 57.1978 185.919 56.6865 185.094 56.3031C184.269 55.9196 183.444 55.5362 182.619 55.2805C181.794 54.961 180.969 54.7054 180.08 54.5136C179.255 54.258 178.493 54.0024 177.922 53.6828C177.287 53.3633 176.843 52.9798 176.462 52.5325C176.145 52.0851 176.018 51.51 176.082 50.807C176.145 50.2318 176.399 49.7205 176.716 49.3371C177.034 48.9536 177.478 48.5702 177.986 48.3785C178.493 48.1228 179.001 47.9311 179.509 47.8033C180.08 47.6755 180.588 47.6116 181.095 47.6116C181.921 47.6116 182.809 47.8033 183.698 48.1228C184.586 48.4424 185.284 48.9536 185.729 49.6566L191.123 44.544C189.981 43.3936 188.648 42.5628 187.061 42.0516C185.475 41.5403 183.825 41.2847 182.111 41.2847C180.588 41.2847 179.128 41.4764 177.605 41.9237C176.145 42.3711 174.749 43.0102 173.543 43.841C172.337 44.6718 171.321 45.7582 170.496 46.9725C169.671 48.2507 169.164 49.7205 168.91 51.3821C168.656 53.1077 168.846 54.5136 169.417 55.5362C169.989 56.5587 170.75 57.4534 171.766 58.0925C172.781 58.7316 173.86 59.2428 175.066 59.6263C176.272 60.0097 177.351 60.3932 178.366 60.7766C179.382 61.1601 180.207 61.6074 180.905 62.1826C181.54 62.6939 181.794 63.4608 181.667 64.4194C181.603 64.9946 181.349 65.4419 181.032 65.8893C180.715 66.2727 180.27 66.6562 179.763 66.9118C179.255 67.1674 178.747 67.3592 178.176 67.487C177.605 67.6148 177.034 67.6787 176.462 67.6787C175.32 67.6787 174.304 67.4231 173.289 66.9118C172.337 66.4005 171.512 65.6976 170.941 64.7389L165.292 70.1072C166.625 71.5132 168.085 72.4718 169.671 73.1109C171.321 73.75 173.099 74.0056 175.129 74.0056C176.716 74.0056 178.303 73.8139 179.763 73.3665C181.286 72.9831 182.619 72.344 183.825 71.4493C185.03 70.6185 186.046 69.532 186.871 68.2539C187.696 66.9757 188.204 65.4419 188.458 63.7164C188.648 62.3743 188.648 61.224 188.331 60.2654C188.204 59.3068 187.76 58.4759 187.188 57.8369Z" fill="black"/>
<path d="M16.0157 37.3222C7.95529 37.8335 0.910367 44.4799 0.0852856 52.6602C-0.803263 61.1599 5.35311 68.062 13.7943 68.062C21.9182 68.062 29.217 61.6712 30.5498 53.6188L32.2635 37.2583L16.0157 37.3222ZM15.4445 48.8257C15.5714 49.0813 15.8253 49.273 16.1426 49.4647C16.46 49.6565 16.8408 49.7843 17.2851 49.9121C17.7293 50.0399 18.1736 50.1677 18.6179 50.3595C19.0622 50.5512 19.5064 50.7429 19.8872 50.9346C20.3315 51.1903 20.6488 51.4459 20.9662 51.7654C21.2201 52.085 21.4105 52.5323 21.5374 53.0436C21.6643 53.5549 21.6009 54.1939 21.4105 54.9608C21.1566 55.9195 20.7758 56.7503 20.268 57.4533C19.7603 58.1562 19.1256 58.7314 18.4275 59.2427C17.7293 59.69 16.9677 60.0735 16.0792 60.2652C15.2541 60.5208 14.3655 60.5848 13.477 60.5848C12.398 60.5848 11.3826 60.393 10.5575 60.0735C9.66892 59.754 8.97078 59.1788 8.3361 58.4119L11.7634 55.4721C12.0172 55.9834 12.398 56.3668 12.9058 56.6864C13.4135 56.942 13.9847 57.1337 14.6194 57.1337C14.9367 57.1337 15.2541 57.0698 15.5714 57.0059C15.8888 56.942 16.2061 56.8142 16.5234 56.6864C16.8408 56.5585 17.0312 56.3668 17.2851 56.1112C17.4755 55.8556 17.6659 55.5999 17.7293 55.3443C17.8563 54.833 17.7928 54.4496 17.412 54.13C17.0947 53.8105 16.6504 53.5549 16.1426 53.3631C15.6349 53.1714 15.0002 52.9158 14.3655 52.7241C13.7309 52.5323 13.1596 52.2128 12.6519 51.8933C12.0172 51.5098 11.6364 51.0624 11.3826 50.4873C11.1287 49.9121 11.1287 49.1452 11.3191 48.1866C11.573 47.2919 11.8903 46.4611 12.4615 45.7581C12.9692 45.0551 13.6039 44.4799 14.3021 44.0326C15.0002 43.5852 15.8253 43.2018 16.6504 43.01C17.4755 42.7544 18.3005 42.6905 19.1256 42.6905C20.0776 42.6905 20.9662 42.8183 21.7913 43.0739C22.6164 43.3296 23.3145 43.7769 23.8857 44.4799L20.6488 47.2919C20.4584 46.9084 20.0776 46.5889 19.6334 46.4611C19.1256 46.2693 18.6813 46.2054 18.2371 46.2054C17.9832 46.2054 17.6659 46.2693 17.3485 46.3333C17.0312 46.3972 16.7138 46.525 16.46 46.6528C16.2061 46.7806 15.9522 46.9723 15.6984 47.1641C15.508 47.4197 15.3176 47.6753 15.2541 47.9949C15.2541 48.2505 15.2541 48.57 15.4445 48.8257Z" fill="url(#paint0_linear_1259_64)"/>
<path d="M54.3505 0C44.7034 0 36.0083 7.60506 34.4216 17.1913L32.3906 36.5554L51.6214 36.4915C61.205 35.9163 69.5828 27.9917 70.5982 18.2777C71.6137 8.18023 64.3784 0 54.3505 0ZM56.0641 28.1835H52.7003L51.8118 16.3605H51.7483L45.2111 28.1835H41.9743L41.0857 11.12H45.1476V22.0483H45.2111L51.431 11.12H54.9217L55.7468 22.3678H55.8102L61.3954 11.12H65.2035L56.0641 28.1835Z" fill="url(#paint1_linear_1259_64)"/>
<defs>
<linearGradient id="paint0_linear_1259_64" x1="32.1012" y1="39.7649" x2="-0.125226" y2="68.0415" gradientUnits="userSpaceOnUse">
<stop stop-color="#CB2929"/>
<stop offset="1" stop-color="#911212"/>
</linearGradient>
<linearGradient id="paint1_linear_1259_64" x1="70.5006" y1="2.97467" x2="32.2549" y2="36.5459" gradientUnits="userSpaceOnUse">
<stop stop-color="#CB2929"/>
<stop offset="1" stop-color="#911212"/>
</linearGradient>
</defs>
</svg>
