<svg width="179" height="61" viewBox="0 0 179 61" fill="none" xmlns="http://www.w3.org/2000/svg">
<g clip-path="url(#clip0_1216_569)">
<path d="M79.3684 16.8647C77.7373 16.7069 76.6233 16.5359 76.6233 15.4177C76.6233 14.5494 77.7373 14.1943 78.8777 14.1943C80.3232 14.1943 81.6228 14.4705 82.7633 15.2993L85.0707 12.392C83.2937 11.0107 81.3443 10.4451 78.8645 10.4451C75.3502 10.4451 71.9023 11.9447 71.9023 15.4045C71.9023 19.4694 75.032 20.3771 78.6655 20.706C80.4956 20.877 81.4504 21.3901 81.4504 22.2057C81.4504 23.1134 80.3895 23.6527 78.8379 23.6527C77.4455 23.6527 75.6155 23.3765 73.9711 21.811L71.3851 24.7315C73.6926 27.1257 75.8276 27.6256 78.8114 27.5993C82.5378 27.573 86.1051 26.0338 86.1051 22.2715C86.1051 18.5223 82.6837 17.2068 79.3684 16.8647Z" fill="#6D6D6D"/>
<path d="M99.0348 17.0752H93.054V10.866H88.3595V27.2177H93.054V21.0217H99.0348V27.2177H103.676V10.866H99.0348V17.0752Z" fill="#6D6D6D"/>
<path d="M112.455 10.866L105.002 27.2177H109.989L111.076 24.5341H118.502L119.603 27.2177H124.629L117.203 10.866H112.455ZM112.667 20.6533L114.802 15.4439L116.924 20.6533H112.667Z" fill="#6D6D6D"/>
<path d="M130.663 10.866H125.968V27.2177H138.62V23.2975H130.663V10.866Z" fill="#6D6D6D"/>
<path d="M148.804 10.4714C143.367 10.4714 139.574 13.576 139.574 19.0485C139.574 24.521 143.367 27.6256 148.804 27.6256C154.255 27.6256 158.034 24.4947 158.034 19.0485C158.034 13.6023 154.241 10.4714 148.804 10.4714ZM148.804 23.666C146.139 23.666 144.269 21.7585 144.269 19.0354C144.269 16.3254 146.125 14.4048 148.804 14.4048C151.549 14.4048 153.339 16.3123 153.339 19.0354C153.326 21.7585 151.456 23.666 148.804 23.666Z" fill="#6D6D6D"/>
<path d="M174.12 10.866L169.757 16.3911L165.381 10.866H160.474V27.2177H165.116V17.4961L169.28 22.4293H170.102L174.359 17.4698V27.2177H179V10.866H174.12Z" fill="#6D6D6D"/>
<path d="M96.3295 39.4258C95.9449 40.7807 95.6399 42.0962 95.4012 43.3328L92.2451 33.7954H88.9961L85.9327 43.3328C85.7073 42.1094 85.4553 40.7939 85.0575 39.5442L82.9224 33.7954H77.8036L83.9966 50.1208H87.7893L90.6405 42.2936L93.5844 50.1208H97.4037L103.451 33.7954H98.332L96.3295 39.4258Z" fill="#6D6D6D"/>
<path d="M112.906 33.3875C107.469 33.3875 103.676 36.492 103.676 41.9645C103.676 47.4371 107.469 50.5416 112.906 50.5416C118.356 50.5416 122.136 47.4107 122.136 41.9645C122.136 36.5184 118.343 33.3875 112.906 33.3875ZM112.906 46.5951C110.241 46.5951 108.371 44.6876 108.371 41.9645C108.371 39.2546 110.227 37.334 112.906 37.334C115.651 37.334 117.441 39.2415 117.441 41.9645C117.441 44.6745 115.558 46.5951 112.906 46.5951Z" fill="#6D6D6D"/>
<path d="M139.946 49.8577L135.623 44.3458C138.421 43.1355 139.137 41.4385 139.137 39.4258C139.137 36.479 136.935 33.7954 132.679 33.7954H124.563V50.1471H129.27V44.8457H130.915L134.787 50.1471H139.959L139.946 50.134V49.8577ZM132.745 41.4122H129.284V37.492H132.692C133.925 37.492 134.522 38.5444 134.522 39.5179C134.522 40.4913 133.978 41.4122 132.745 41.4122Z" fill="#6D6D6D"/>
<path d="M146.762 33.7822H142.068V50.134H154.719V46.2138H146.762V33.7822Z" fill="#6D6D6D"/>
<path d="M163.909 33.7822H156.787V50.134H163.909C169.863 50.134 172.595 46.3453 172.595 41.8331C172.595 37.3341 169.757 33.7822 163.909 33.7822ZM163.909 46.2401H161.442V46.2269V37.6367H163.909C166.786 37.6367 167.94 39.5441 167.94 41.7937C167.94 44.0432 166.893 46.2401 163.909 46.2401Z" fill="#6D6D6D"/>
<path d="M13.1418 23.7449C14.8525 24.3895 16.3378 24.7315 17.5843 24.7315C19.6 24.7315 20.8333 23.8238 20.8864 22.2978C20.9394 20.6008 19.4276 18.7065 17.0937 18.5749L16.7091 18.5486L16.7754 18.1671C17.6241 13.8654 20.1835 11.195 23.4723 11.195C26.3235 11.195 29.1614 13.1814 31.2567 16.6411C32.6889 19.1406 34.0813 20.6403 35.3809 21.1139C36.0837 21.377 36.8131 21.5085 37.6353 21.5085C39.9825 21.5085 42.595 20.4167 44.8362 19.3642C46.096 18.7723 47.5282 17.983 49.04 17.1542C51.4933 15.8124 54.0129 14.4179 56.2939 13.5497C50.7639 5.38042 41.3882 0 30.7527 0C17.465 0 6.12664 8.39293 1.84326 20.1141C5.37075 20.7061 9.95913 22.5083 12.2798 23.416C12.6246 23.5476 12.9164 23.6528 13.1418 23.7449Z" fill="#F1C962"/>
<path d="M57.3415 15.2336C54.3312 16.0492 51.7983 17.5358 49.1196 19.1144C47.9261 19.8116 46.706 20.5351 45.433 21.1929C42.0779 22.9293 39.3593 23.7713 37.1049 23.7713C34.8638 23.7713 33.0337 22.9162 31.6678 21.2455C30.9252 20.3246 30.3019 19.2985 29.7051 18.3119C28.8299 16.8517 27.9944 15.4836 26.8672 14.6022C25.8196 13.7734 24.5333 13.313 23.2602 13.313C21.0456 13.313 19.3083 14.76 18.7779 16.9964C20.8997 18.1409 22.3452 19.6932 22.5706 21.5217C22.743 22.903 22.2258 24.2185 21.1517 25.1525C19.8255 26.2839 18.3403 26.8495 16.6031 26.8495C14.1895 26.8495 11.6964 25.7577 9.29612 24.7053C7.89043 24.1001 6.57757 23.5213 5.29123 23.153C3.6601 22.7057 2.33398 22.4952 1.15373 22.4952C1.1272 22.4952 1.11394 22.4952 1.08742 22.4952C0.384576 25.0341 0 27.7178 0 30.4935C0 47.3188 13.7917 61.0001 30.7528 61.0001C47.7006 61.0001 61.4923 47.3188 61.4923 30.4935C61.4923 24.9289 59.9805 19.7195 57.3415 15.2336ZM22.3186 17.5095C21.7351 17.5095 21.271 17.0227 21.271 16.4176C21.271 15.8124 21.7484 15.3257 22.3186 15.3257C22.8889 15.3257 23.3663 15.8124 23.3663 16.4176C23.3663 17.0227 22.9021 17.5095 22.3186 17.5095ZM49.5307 39.2811L49.4378 39.0706C48.7483 37.4394 47.7935 35.8871 46.6132 34.4532C43.0725 36.6895 39.9295 38.3339 36.4021 39.0969C37.0784 41.8989 39.2532 44.2011 43.5764 46.74L44.2925 47.1609C45.791 48.0292 46.4143 48.3844 46.3878 48.9369C46.348 49.4894 45.7114 49.7525 44.014 50.4629C43.7488 50.5813 43.4438 50.6997 43.1255 50.8444C39.3461 52.4493 35.3809 53.2649 31.323 53.2649C28.021 53.2649 24.6526 52.7255 21.2975 51.6468C20.7406 51.4627 20.0775 51.1864 19.9979 50.6734C19.9184 50.1472 20.4621 49.7525 20.6477 49.6341C24.4404 46.9505 26.0716 43.7143 25.2494 40.5176C20.5682 39.6626 17.0142 38.597 13.7386 37.071L13.4204 36.9132L14.7597 34.8873L14.9852 35.0188C18.3933 36.5448 21.6556 37.3867 24.3874 37.4657H26.5224L26.7877 37.4525L26.8672 37.7156C27.159 38.7943 27.3049 40.0309 27.2783 41.2675C27.1988 44.2142 26.0318 47.0689 24.0824 49.0947C23.7509 49.4368 23.6182 49.6078 23.5652 49.6999C23.7243 49.7788 24.1222 49.8709 24.3078 49.9235C26.8009 50.5286 29.0553 50.8181 31.2169 50.8181C33.909 50.8181 36.4153 50.3708 38.8819 49.4368L39.1471 49.3315C40.3406 48.8843 41.2955 48.5291 41.4811 48.3186C41.3883 48.1739 40.9904 47.8845 40.6457 47.6345C40.2346 47.332 39.7306 46.9636 39.1471 46.4769C36.7601 44.4905 35.3942 42.0436 34.9698 39.018C34.9698 39.018 34.877 38.3339 34.8638 38.0182C34.8505 37.9129 34.8505 37.834 34.8505 37.7419V36.7685L35.129 36.6895C38.2719 35.9528 41.5872 34.4926 44.7566 32.4536C40.9772 28.9675 35.9247 26.9811 30.8456 26.9811C29.0023 26.9811 27.159 27.2442 25.3687 27.7441C20.4886 29.1122 16.2583 32.0063 13.9243 35.6503L13.1817 36.7948L12.943 36.6632C9.68069 35.032 6.94888 32.6904 4.36294 29.3227C3.96511 28.836 3.83249 28.3361 3.99163 27.994C4.08446 27.7967 4.28338 27.6783 4.50882 27.6783C4.80056 27.6783 5.14536 27.8756 5.52993 28.2703C7.34672 30.112 9.86635 32.4273 13.3938 34.2164C16.3644 30.5593 20.356 27.7704 24.9841 26.1523C27.5568 25.2446 30.2091 24.7842 32.8613 24.7842C42.1574 24.7842 50.1805 30.283 53.3101 38.8075L53.4693 39.2811H49.5307ZM55.538 25.0868L55.485 25.2052C54.013 27.5073 52.7399 29.1648 49.902 31.7827L49.6633 31.9932L47.8465 30.2172L48.1117 29.9936C50.207 28.2571 52.3288 26.4286 53.5621 24.8105C53.8671 24.3895 54.318 24.1396 54.7423 24.1396C55.0076 24.1396 55.2197 24.2317 55.3789 24.4159C55.538 24.6 55.5911 24.8368 55.538 25.0868Z" fill="#F1C962"/>
</g>
<defs>
<clipPath id="clip0_1216_569">
<rect width="179" height="61" fill="white"/>
</clipPath>
</defs>
</svg>
