<svg width="145" height="81" viewBox="0 0 145 81" fill="none" xmlns="http://www.w3.org/2000/svg">
<path d="M22.5003 79.0756C20.8884 79.0756 20.2167 78.0004 20.2167 76.7908C20.2167 75.7156 20.8884 74.506 22.5003 74.506C23.0376 74.506 23.7092 74.6404 24.1122 75.178L24.9181 74.3716C24.2465 73.6996 23.4406 73.2964 22.5003 73.2964C20.0824 73.2964 19.0078 75.0436 19.0078 76.7908C19.0078 78.538 20.0824 80.1509 22.5003 80.1509C23.4406 80.1509 24.3808 79.8821 25.0525 79.2101L24.2465 78.4036C23.7092 78.8068 23.1719 79.0756 22.5003 79.0756Z" fill="#5EBBBB"/>
<path d="M32.3059 73.2964C30.0224 73.2964 28.9478 75.0436 28.9478 76.7908C28.9478 78.538 30.0224 80.1509 32.3059 80.1509C34.5894 80.1509 35.664 78.4036 35.664 76.7908C35.664 75.0436 34.5894 73.2964 32.3059 73.2964ZM32.3059 79.0756C30.694 79.0756 30.1567 77.866 30.1567 76.7908C30.1567 75.7156 30.8283 74.3716 32.3059 74.3716C33.9178 74.3716 34.4551 75.5812 34.4551 76.7908C34.4551 77.866 33.9178 79.0756 32.3059 79.0756Z" fill="#5EBBBB"/>
<path d="M44.6641 77.5972L41.4403 73.4308H40.5V80.0165H41.7089V75.5812L45.2014 80.1509V80.0165H46.0073V73.4308H44.6641V77.5972Z" fill="#5EBBBB"/>
<path d="M50.843 80.0165H52.1863V77.5972H55.4101V76.522H52.1863V74.6404H55.6787V73.4308H50.843V80.0165Z" fill="#5EBBBB"/>
<path d="M60.2458 80.0165H65.2159V78.8068H61.4548V77.3284H65.0816V76.1188H61.4548V74.6404H65.2159V73.4308H60.2458C60.2458 75.7156 60.2458 77.866 60.2458 80.0165Z" fill="#5EBBBB"/>
<path d="M75.4246 75.7155C75.4246 74.6403 74.6186 73.5651 73.0067 73.5651C71.9321 73.5651 70.8575 73.5651 69.9172 73.5651V80.1507H71.1262V78.0003H72.3351L74.2157 80.1507H75.6932V80.0163L73.6784 77.7315C75.0216 77.4627 75.4246 76.5219 75.4246 75.7155ZM71.1262 76.7907V74.6403H73.0067C73.8127 74.6403 74.0813 75.1779 74.0813 75.7155C74.0813 76.2531 73.6784 76.7907 73.0067 76.7907H71.1262Z" fill="#5EBBBB"/>
<path d="M79.9917 80.0165H84.9617V78.8068H81.2006V77.3284H84.8274V76.1188H81.2006V74.6404H84.9617V73.4308H79.9917C79.9917 75.7156 79.9917 77.866 79.9917 80.0165Z" fill="#5EBBBB"/>
<path d="M93.9612 77.5972L90.7374 73.4308H89.7971V80.0165H91.0061V75.5812L94.4985 80.1509V80.0165H95.3045V73.4308H93.9612V77.5972Z" fill="#5EBBBB"/>
<path d="M103.499 79.0756C101.887 79.0756 101.215 78.0004 101.215 76.7908C101.215 75.7156 101.887 74.506 103.499 74.506C104.036 74.506 104.707 74.6404 105.11 75.178L105.916 74.3716C105.245 73.6996 104.439 73.2964 103.499 73.2964C101.081 73.2964 100.006 75.0436 100.006 76.7908C100.006 78.538 101.081 80.1509 103.499 80.1509C104.439 80.1509 105.379 79.8821 106.051 79.2101L105.245 78.4036C104.707 78.8068 104.036 79.0756 103.499 79.0756Z" fill="#5EBBBB"/>
<path d="M110.215 80.0165H115.185V78.8068H111.424V77.3284H115.05V76.1188H111.424V74.6404H115.185V73.4308H110.215C110.215 75.7156 110.215 77.866 110.215 80.0165Z" fill="#5EBBBB"/>
<path d="M122.439 75.9844C121.633 75.85 120.961 75.7156 120.961 75.178C120.961 74.6404 121.364 74.2372 122.304 74.2372C122.976 74.2372 123.648 74.6404 123.916 74.9092L124.856 74.3716C124.319 73.2964 123.245 73.0276 122.304 73.0276C121.095 73.0276 119.752 73.5652 119.752 74.9092C119.752 76.3876 120.961 76.7908 122.304 76.9252C123.245 77.0596 123.782 77.3284 123.782 77.866C123.782 78.5381 123.11 78.8069 122.304 78.8069C121.498 78.8069 120.692 78.538 120.424 77.7316L119.349 78.2692C119.886 79.4789 120.827 79.8821 122.17 79.8821C123.648 79.8821 124.991 79.2101 124.991 77.7316C125.125 76.522 123.782 76.2532 122.439 75.9844Z" fill="#5EBBBB"/>
<path d="M11.9191 60.85C10.9017 60.7369 10.2235 60.6237 10.2235 59.9451C10.2235 59.3796 10.9017 59.1534 11.58 59.1534C12.4843 59.1534 13.2756 59.3796 13.9538 59.832L15.4233 58.0223C14.2929 57.1175 13.1625 56.7782 11.58 56.7782C9.4322 56.7782 7.28443 57.683 7.28443 59.832C7.28443 62.4334 9.20612 62.9989 11.4669 63.112C12.5973 63.2251 13.1625 63.5645 13.1625 64.0169C13.1625 64.5824 12.4843 64.9217 11.58 64.9217C10.6756 64.9217 9.54524 64.6955 8.52788 63.7907L6.94531 65.6003C8.41484 67.0707 9.65828 67.41 11.4669 67.41C13.7277 67.41 15.9885 66.3921 15.9885 64.13C16.1016 61.8679 13.9538 61.0762 11.9191 60.85Z" fill="#5EBBBB"/>
<path d="M24.0143 60.963H20.284V57.1174H17.458V67.2968H20.284V63.4513H24.0143V67.2968H26.8404V57.1174H24.0143V60.963Z" fill="#5EBBBB"/>
<path d="M32.2662 57.1175L27.7446 67.2969H30.7967L31.475 65.6003H35.9966L36.6748 67.2969H39.7269L35.2053 57.0044H32.2662V57.1175ZM32.3793 63.2251L33.7358 59.9451L35.0923 63.2251H32.3793Z" fill="#5EBBBB"/>
<path d="M43.4574 57.1174H40.6313V67.2968H48.4311V64.8085H43.4574V57.1174Z" fill="#5EBBBB"/>
<path d="M54.6484 56.7782C51.2571 56.7782 48.9963 58.8141 48.9963 62.0941C48.9963 65.4872 51.3702 67.41 54.6484 67.41C58.0396 67.41 60.3004 65.4872 60.3004 62.0941C60.3004 58.8141 58.0396 56.7782 54.6484 56.7782ZM54.6484 65.1479C53.0658 65.1479 51.8224 64.0169 51.8224 62.2072C51.8224 60.5106 52.9528 59.2665 54.6484 59.2665C56.344 59.2665 57.4744 60.3975 57.4744 62.2072C57.4744 63.9038 56.344 65.1479 54.6484 65.1479Z" fill="#5EBBBB"/>
<path d="M67.5351 60.5106L64.8221 57.1174H61.8831V67.2968H64.7091V61.1892L67.309 64.3561H67.7612L70.3611 61.1892V67.2968H73.3001V57.1174H70.248L67.5351 60.5106Z" fill="#5EBBBB"/>
<path d="M90.1432 60.6237C89.9171 61.5285 89.691 62.3202 89.5779 63.112L87.6563 57.1174H85.6215L83.6999 63.112C83.5868 62.3202 83.3607 61.5285 83.1347 60.7368L81.7782 57.1174H78.613L82.4564 67.2968H84.8303L86.6389 62.4333L88.4475 67.2968H90.8214L94.5517 57.1174H91.3866L90.1432 60.6237Z" fill="#5EBBBB"/>
<path d="M100.317 56.8915C96.9254 56.8915 94.6646 58.9274 94.6646 62.2074C94.6646 65.6005 97.0384 67.5233 100.317 67.5233C103.708 67.5233 105.969 65.6005 105.969 62.2074C106.082 58.8143 103.708 56.8915 100.317 56.8915ZM100.317 65.1481C98.734 65.1481 97.4906 64.0171 97.4906 62.2074C97.4906 60.5108 98.621 59.2667 100.317 59.2667C102.012 59.2667 103.143 60.3977 103.143 62.2074C103.143 63.9039 102.012 65.1481 100.317 65.1481Z" fill="#5EBBBB"/>
<path d="M116.481 60.6237C116.481 58.814 115.125 57.1174 112.525 57.1174H107.551V67.4099H110.49V64.1299H111.508L113.882 67.4099H117.047V67.1837L114.334 63.6775C116.142 62.9989 116.481 61.8678 116.481 60.6237ZM112.638 61.8678H110.49V59.3795H112.638C113.429 59.3795 113.768 60.0581 113.768 60.6237C113.655 61.3023 113.316 61.8678 112.638 61.8678Z" fill="#5EBBBB"/>
<path d="M121.229 57.1174H118.29V67.4099H126.09V64.9216H121.229V57.1174Z" fill="#5EBBBB"/>
<path d="M131.742 57.1174H127.333V67.4099H131.742C135.359 67.4099 137.055 65.0347 137.055 62.2071C137.168 59.3795 135.359 57.1174 131.742 57.1174ZM131.742 64.9216H130.272V59.4926H131.742C133.55 59.4926 134.229 60.7368 134.229 62.094C134.229 63.5644 133.664 64.9216 131.742 64.9216Z" fill="#5EBBBB"/>
<path d="M58.6948 21.3224C60.0048 21.8463 61.1401 22.1083 62.0134 22.1083C63.5853 22.1083 64.4586 21.4097 64.5459 20.2744C64.5459 18.9645 63.4106 17.5672 61.664 17.4798H61.402L61.4894 17.2179C62.1007 13.8993 64.1093 11.8907 66.5545 11.8907C68.7378 11.8907 70.8337 13.3753 72.4056 16.0826C73.4536 18.0038 74.5016 19.1391 75.5495 19.4884C76.0735 19.6631 76.5975 19.7504 77.2961 19.7504C79.0427 19.7504 81.0513 18.9645 82.7106 18.0912C83.6712 17.6545 84.7192 17.0432 85.8545 16.4319C87.6884 15.3839 89.6096 14.336 91.3563 13.6373C87.1644 7.26223 80.0033 3.15771 71.969 3.15771C61.926 3.15771 53.3677 9.53281 50.1365 18.5278C52.8437 18.9645 56.2496 20.3617 57.9962 21.0604C58.2582 21.1477 58.5202 21.235 58.6948 21.3224Z" fill="#5EBBBB"/>
<path d="M92.055 14.7728C89.7844 15.3841 87.8631 16.5194 85.8545 17.742C84.9812 18.266 84.0206 18.79 83.06 19.3139C80.5274 20.6239 78.4315 21.3225 76.7722 21.3225C75.1129 21.3225 73.7157 20.7112 72.6677 19.4013C72.1437 18.7026 71.6197 17.9167 71.1831 17.1307C70.4844 15.9954 69.8731 14.9474 68.9998 14.3361C68.2139 13.7248 67.2532 13.3755 66.2926 13.3755C64.6333 13.3755 63.3234 14.5108 62.8867 16.17C64.4587 17.0434 65.594 18.266 65.7686 19.5759C65.856 20.6239 65.5066 21.6718 64.7207 22.3705C63.6727 23.2438 62.6247 23.6804 61.3148 23.6804C59.4809 23.6804 57.6469 22.8071 55.813 22.0212C54.765 21.5845 53.7171 21.1479 52.7564 20.7985C51.5338 20.4492 50.4859 20.2746 49.6126 20.2746C49.6126 20.2746 49.6126 20.2746 49.5252 20.2746C49.0012 22.1958 48.7393 24.2917 48.7393 26.3877C48.7393 39.2252 59.1315 49.6175 71.9691 49.6175C84.8066 49.6175 95.1989 39.1379 95.1989 26.3877C95.1989 22.1958 94.0636 18.266 92.055 14.7728ZM65.594 16.5194C65.1573 16.5194 64.808 16.17 64.808 15.6461C64.808 15.2094 65.1573 14.7728 65.594 14.7728C66.0306 14.7728 66.3799 15.1221 66.3799 15.6461C66.3799 16.17 66.0306 16.5194 65.594 16.5194ZM86.2039 33.1121L86.1165 32.9374C85.5925 31.7148 84.8939 30.4922 84.0206 29.4442C81.3134 31.1035 78.9555 32.4134 76.3356 33.0247C76.8595 35.1207 78.5188 36.9546 81.75 38.8759L82.274 39.2252C83.4093 39.9238 83.8459 40.1858 83.8459 40.6225C83.8459 41.0591 83.322 41.2338 82.012 41.7578C81.8374 41.8451 81.5754 41.9324 81.3134 42.0197C78.4315 43.2424 75.4623 43.8537 72.4057 43.8537C69.8731 43.8537 67.3406 43.417 64.808 42.6311C64.3713 42.4564 63.8474 42.2817 63.8474 41.8451C63.76 41.4084 64.1967 41.1464 64.3713 41.0591C67.2532 39.0505 68.4759 36.518 67.8645 34.0727C64.284 33.3741 61.6641 32.5881 59.1315 31.4528L58.8695 31.3655L59.9175 29.7935L60.0922 29.8809C62.7121 31.0162 65.1573 31.7148 67.1659 31.7148H68.8252H68.9998L69.0872 31.8895C69.3492 32.6754 69.4365 33.6361 69.4365 34.5967C69.3492 36.8673 68.4759 39.0505 66.9912 40.5351C66.6419 40.8845 66.5546 41.0591 66.5546 41.0591C66.6419 41.1464 66.9912 41.2338 67.0786 41.2338C68.9998 41.6704 70.6591 41.9324 72.3184 41.9324C74.327 41.9324 76.2482 41.5831 78.0822 40.8845L78.2568 40.7971C79.1301 40.4478 79.9161 40.1858 80.0034 40.0112C79.9161 39.9238 79.6541 39.6618 79.3921 39.4872C79.0428 39.2252 78.6935 38.9632 78.2568 38.6139C76.4229 37.1293 75.3749 35.208 75.1129 32.9374C75.1129 32.9374 75.0256 32.4134 75.0256 32.1515C75.0256 32.0641 75.0256 31.9768 75.0256 31.9768V31.1908L75.2003 31.1035C77.5582 30.5795 80.0907 29.4442 82.4487 27.8723C79.5668 25.2524 75.8116 23.6804 71.8817 23.6804C70.4844 23.6804 69.0872 23.8551 67.7772 24.2917C64.1094 25.3397 60.8781 27.523 59.1315 30.3175L58.6076 31.1908L58.4329 31.1035C55.9877 29.8809 53.8917 28.0469 51.9705 25.5144C51.7085 25.165 51.5338 24.7284 51.7085 24.4664C51.7958 24.2917 51.8831 24.2044 52.0578 24.2044C52.3198 24.2044 52.5818 24.3791 52.8438 24.6411C54.2411 26.0383 56.1623 27.7849 58.7822 29.1822C61.0528 26.3877 64.022 24.2917 67.5152 23.0691C69.4365 22.3705 71.4451 22.0212 73.4537 22.0212C80.5274 22.0212 86.5532 26.213 88.9111 32.7628L88.9984 33.1121H86.2039ZM90.745 22.3705V22.4578C89.6097 24.2044 88.6491 25.5144 86.5532 27.523L86.3785 27.6976L84.8939 26.213L85.0686 26.0383C86.6405 24.7284 88.2998 23.3311 89.1731 22.1085C89.4351 21.7592 89.6971 21.5845 90.0464 21.5845C90.221 21.5845 90.3957 21.6718 90.483 21.7592C90.745 21.9338 90.745 22.1085 90.745 22.3705Z" fill="#5EBBBB"/>
<path d="M48.9142 14.472C49.7908 12.8055 50.755 11.3144 51.9823 9.91106L41.6384 -0.00012207L41.5507 4.03452L43.3039 5.61329L35.4146 8.06916L48.9142 14.472Z" fill="#F1C962"/>
<path d="M45.9338 26.7515C45.9338 26.6638 45.9338 26.5761 45.9338 26.5761C45.9338 25.1728 46.0214 23.7694 46.2844 22.4538L11.3958 13.5951L18.4962 19.7348L15.6034 23.3309L45.9338 26.7515Z" fill="#F1C962"/>
<path d="M144.113 0.877075L96.2507 16.6648C96.6014 17.6296 96.952 18.5944 97.215 19.5592L139.116 7.36758L144.113 0.877075Z" fill="#F1C962"/>
<path d="M95.1986 14.4719L110.451 6.31488L104.052 6.57801L102.124 3.85901L92.9194 10.8758C93.796 11.9283 94.4973 13.1562 95.1986 14.4719Z" fill="#F1C962"/>
<path d="M97.8286 22.6291C98.0039 23.9447 98.0916 25.1726 98.0916 26.576C98.0916 26.8391 98.0916 27.0145 98.0916 27.2777L128.685 23.3307L125.617 19.7346L132.104 13.7704L97.8286 22.6291Z" fill="#F1C962"/>
<path d="M46.8981 19.5592C47.1611 18.5944 47.5117 17.6296 47.8623 16.6648L0 0.877075L4.99662 7.45529L46.8981 19.5592Z" fill="#F1C962"/>
<path d="M34.9763 34.7331L46.9857 33.6806C46.8104 32.8912 46.5474 32.1895 46.4598 31.4001H43.304L41.1125 29.2074L1.75317 27.5409L7.27575 33.7683L32.6095 32.2772L34.9763 34.7331Z" fill="#F1C962"/>
<path d="M95.9002 37.1011C95.3742 38.2413 94.7606 39.3815 94.147 40.434L115.185 46.8368L114.572 43.9424L124.653 41.8374L95.9002 37.1011Z" fill="#F1C962"/>
<path d="M101.072 31.137L97.7408 31.4001C97.5655 32.1895 97.3902 32.9789 97.2148 33.6806L109.224 34.7331L111.591 32.2772L136.925 33.7683L142.798 27.0146L103.351 28.9443L101.072 31.137Z" fill="#F1C962"/>
<path d="M49.9664 40.434C49.2651 39.3815 48.7391 38.2413 48.2132 37.1011L19.4607 41.7497L29.5416 43.8547L28.928 46.8368L49.9664 40.434Z" fill="#F1C962"/>
<path d="M51.5441 42.7147L39.5347 47.6265L45.0572 49.9946L53.7356 45.1706C52.9466 44.3812 52.2454 43.5918 51.5441 42.7147Z" fill="#F1C962"/>
<path d="M90.3774 45.1704C95.8124 48.1525 100.546 50.7838 100.546 50.7838L102.124 48.5034L105.893 47.8894L92.5689 42.8022C91.8677 43.5916 91.1664 44.381 90.3774 45.1704Z" fill="#F1C962"/>
</svg>
