<svg width="143" height="71" viewBox="0 0 143 71" fill="none" xmlns="http://www.w3.org/2000/svg">
<g clip-path="url(#clip0_1262_285)">
<path d="M87.5212 37.3267L80.9991 27.5554H77.7577L76.1858 43.4433H79.663L80.6454 33.3394L87.4033 43.4433H90.3898L91.9414 27.5554H88.4834L87.5212 37.3267Z" fill="#969696"/>
<path d="M92.8453 43.4446H105.006L105.32 40.3375H96.6369L96.9703 36.9953H104.495L104.809 33.8883H97.2847L97.5991 30.6637H106.146L106.46 27.5566H94.397L92.8453 43.4446Z" fill="#969696"/>
<path d="M127.656 27.5554L123.296 38.3046L120.76 27.4972H117.755L113.119 38.3046L110.859 27.5554H107.088L110.978 43.561H114.042L118.659 33.1635L121.251 43.561H124.296L131.329 27.5554H127.655H127.656Z" fill="#969696"/>
<path d="M137.951 33.9263C135.26 33.223 134.611 32.8903 134.709 31.8352V31.796C134.788 31.0142 135.555 30.4083 136.91 30.4083C138.265 30.4083 139.581 30.9941 140.917 31.9719L143 29.3341C141.507 28.0438 139.581 27.3214 137.264 27.3214C134.002 27.3214 131.487 29.2367 131.193 32.1096V32.1488C130.879 35.2951 132.883 36.1945 136.006 37.0154C138.599 37.6998 139.111 38.1489 139.032 39.0282V39.0674C138.934 40.0049 138.01 40.5716 136.576 40.5716C134.749 40.5716 133.314 39.829 131.999 38.6373L129.681 41.1193C131.429 42.8195 133.788 43.6596 136.203 43.6596C139.641 43.6596 142.234 41.8809 142.549 38.7347V38.6955C142.824 35.92 141.115 34.7675 137.951 33.9275V33.9263Z" fill="#969696"/>
<path d="M0 35.4899C0 55.0919 15.9712 70.9989 35.6958 70.9989C55.4204 70.9989 70.3699 56.1067 71.3333 37.366C71.3726 36.741 71.3726 36.1351 71.3726 35.509C71.3726 33.9263 71.2749 32.3426 71.0582 30.8182C70.4104 25.9717 68.7992 21.4378 66.4021 17.4123C65.3018 15.5754 64.0443 13.855 62.6499 12.2332C56.1076 4.72885 46.4619 0 35.6767 0C15.9712 0 0 15.8879 0 35.4899Z" fill="url(#paint0_linear_1262_285)"/>
<path d="M67.462 19.3085C66.401 17.0998 64.3385 14.1686 62.9238 12.5468L53.4388 37.0199L51.3134 22.9632H43.691L36.7647 38.6932L33.8871 22.9632H17.2276C11.9428 22.9632 9.07412 25.7779 9.07412 29.8034C9.07412 31.9337 9.97794 33.5947 11.5498 35.2759L17.1681 41.2167C17.3646 41.4127 17.4825 41.5885 17.4825 41.901C17.4825 42.4286 17.1288 42.7411 16.5988 42.7411H5.32411L3.94873 49.5812H17.2287C22.1992 49.5812 25.3418 47.0801 25.3418 42.6235C25.3418 40.6891 24.6939 39.0281 23.0435 37.3077L17.4645 31.4834C17.1894 31.2102 17.0715 30.9559 17.0715 30.6434C17.0715 30.1551 17.4252 29.8034 17.9158 29.8034H28.1812L31.9627 49.6003H38.7598L45.822 34.6151L48.5626 49.6003H55.3407L67.462 19.3085Z" fill="white"/>
</g>
<defs>
<linearGradient id="paint0_linear_1262_285" x1="0" y1="35.5" x2="71.3726" y2="35.5" gradientUnits="userSpaceOnUse">
<stop stop-color="#F49800"/>
<stop offset="0.86" stop-color="#E42517"/>
<stop offset="1" stop-color="#E42517"/>
</linearGradient>
<clipPath id="clip0_1262_285">
<rect width="143" height="71" fill="white"/>
</clipPath>
</defs>
</svg>
