<svg width="150" height="64" viewBox="0 0 150 64" fill="none" xmlns="http://www.w3.org/2000/svg">
<path fill-rule="evenodd" clip-rule="evenodd" d="M58.9415 10.3254H59.4516V10.3187L59.5056 10.5062C60.7745 14.915 61.0963 16.0329 63.6693 16.0329C65.9972 16.0329 67.6124 14.4714 67.6124 12.4981C67.6124 10.7107 66.2261 10.0264 64.0617 9.08286C60.8575 7.70747 58.8958 6.79055 58.8958 4.26569C58.8958 1.88036 61.0406 0 64.6829 0C65.9711 0 67.377 0.298997 68.809 0.943501V5.32214H68.299C68.2447 5.14816 68.1924 4.97982 68.1419 4.81699C67.1213 1.52861 66.7974 0.485039 64.3363 0.485039C62.1261 0.485039 60.5567 1.67438 60.5567 3.23581C60.5567 5.07039 62.1182 5.73037 64.5541 6.75993L64.8463 6.88357C67.8478 8.146 69.7376 9.0895 69.7376 11.6343C69.7376 14.3186 67.2462 16.5644 63.532 16.5644C61.4526 16.5644 59.7262 15.9465 58.9415 15.1425V10.3254ZM75.0866 16.2455H70.5419V16.2322V15.6608H71.7647V0.890346H70.5419V0.31893H73.7722V6.55135C74.2103 5.15603 75.5051 4.25904 77.0025 4.25904C79.8863 4.25904 80.2067 5.96 80.2067 8.82373V15.6807H81.4295V16.2521H76.8848V15.6807H78.1273V8.61111C78.1273 6.27229 78.0815 4.91684 76.4467 4.91684C74.9492 4.91684 73.8638 6.47826 73.8638 9.27554V15.6741H75.0866V16.2455ZM83.2474 8.87688V5.2557L83.2408 5.24905C84.189 4.69757 85.3399 4.23911 86.9289 4.23911C88.3152 4.23911 89.4922 4.67764 90.1134 5.27563C91.042 6.14604 91.0616 7.17592 91.0616 8.6244V15.6674H92.3563V16.2388H88.8971V14.1259C88.2498 15.7737 87.1643 16.5578 85.4576 16.5578C83.4762 16.5578 82.1161 15.2953 82.1161 13.4615C82.1161 11.4017 83.3193 10.6177 85.6472 10.0463L85.7841 10.012C87.0989 9.68343 88.1371 9.42395 88.8514 8.71742V7.70747C88.8514 5.76067 88.4329 4.75073 86.6804 4.75073C85.144 4.75073 84.9303 5.49603 84.123 8.31028L84.1227 8.31161L84.1182 8.32699C84.068 8.5022 84.0154 8.68539 83.9601 8.87688H83.2474ZM88.8448 11.1493V9.36192C88.1402 9.82623 87.4327 10.0837 86.7954 10.3156C86.4568 10.4388 86.138 10.5548 85.8499 10.6908C84.8364 11.1559 84.3982 12.0263 84.3982 13.3552C84.3982 14.9365 85.1568 15.807 86.2619 15.807C87.8051 15.807 88.8448 14.1525 88.8448 11.1493ZM92.8141 0.89699V0.325574L92.8075 0.31893H96.2667V15.6674H97.6072V16.2388H92.8141V15.6674H94.0565V0.89699H92.8141ZM98.4377 10.3918C98.4377 6.79055 100.628 4.24575 103.44 4.24575C106.258 4.24575 108.469 6.79055 108.469 10.3918C108.469 13.993 106.232 16.5644 103.44 16.5644C100.648 16.5644 98.4377 13.993 98.4377 10.3918ZM106.023 10.3984C106.023 6.54471 105.356 4.73079 103.44 4.73079C101.524 4.73079 100.857 6.54471 100.857 10.3984C100.857 14.2522 101.505 16.086 103.44 16.086C105.376 16.086 106.023 14.2522 106.023 10.3984ZM114.256 16.2455H109.476V15.6475H110.836V5.14274H109.476V4.57133H112.863V6.56464C113.393 5.06966 114.589 4.24575 116.113 4.24575C117.865 4.24575 118.859 5.00321 119.18 6.56464C119.69 5.06966 120.886 4.24575 122.43 4.24575C125.241 4.24575 125.634 5.87362 125.634 8.87688V15.6409H126.994V16.2388H122.358V15.6409H123.463V8.39184C123.463 6.19255 123.273 5.04308 121.73 5.04308C120.187 5.04308 119.284 6.47162 119.284 9.08286V15.6409H120.599V16.2388H116.008V15.6409H117.14V7.40847C117.14 5.83376 116.564 5.04972 115.387 5.04972C113.844 5.04972 112.968 6.47162 112.968 9.06292V15.6475H114.256V16.2455ZM30.3681 51.1103H27.3479V21.4293H18.4049V22.7729H21.4252V51.1103H18.4049V52.454H30.3681V51.1103ZM27.9713 14.5229C27.9713 12.447 26.3989 11.0429 24.3831 11.0429C22.3672 11.0429 20.7948 12.447 20.7948 14.5229C20.7948 16.5989 22.3672 18.003 24.3831 18.003C26.3989 18.003 27.9713 16.5989 27.9713 14.5229ZM49.1949 52.4208V48.6532C48.1528 51.3425 46.0178 53.3742 42.0336 53.3742C36.6006 53.3742 31.2884 47.6932 31.2884 37.2912C31.2884 26.8892 36.2003 21.0898 42.148 21.0898C45.0392 21.0898 47.4602 22.8257 48.8518 25.8109V12.3579H46.0813V11.0429H54.2848V51.0926H57.0553V52.4076H49.2013L49.1949 52.4208ZM43.1837 52.0592C47.0535 52.0592 49.1886 47.3973 49.1886 37.8304C49.1886 27.0733 46.8184 22.7665 43.0058 22.7665C39.5999 22.7665 37.2869 25.6925 37.2869 37.8304C37.2869 48.7124 39.4791 52.0592 43.1774 52.0592H43.1837ZM69.9387 51.1H67.1508V31.6311H58.8958V32.985H61.6837V51.1H58.8958V52.4539H69.9387V51.1ZM67.7327 24.6722C67.7327 22.5804 66.2812 21.1656 64.4204 21.1656C62.5597 21.1656 61.1082 22.5804 61.1082 24.6722C61.1082 26.7639 62.5597 28.1787 64.4204 28.1787C66.2812 28.1787 67.7327 26.7639 67.7327 24.6722ZM71.7855 21.2326H79.9738V25.5324C81.3761 22.8281 84.2449 20.2455 88.3358 20.2455C92.9542 20.2455 96.2282 22.578 96.2282 29.278V51.0951H99.3865V52.4473H87.3388V51.0951H90.7286V28.541C90.7286 23.991 89.3843 22.4563 86.6377 22.4563C83.4216 22.4563 80.437 25.404 80.437 31.7997V51.1019H83.8268V52.4541H71.7791V51.1019H74.9374V22.5847H71.7791V21.2326H71.7855ZM121.809 22.9108H126.411V21.2117H119.245C118.137 20.6053 116.156 20.2455 114.644 20.2455C108.703 20.2455 104.159 24.3634 104.159 30.1805C104.159 33.2722 105.146 35.8176 106.37 37.2103C103.101 38.1165 100.307 40.4153 100.307 44.8398C100.307 47.9848 102.05 50.8367 105.549 51.683C103.8 52.3493 101.704 53.9885 101.704 56.2273C101.704 59.499 105.549 63.497 114.291 63.497C121.982 63.497 126.994 58.6461 126.994 53.7419C126.994 47.0187 121.168 46.5322 115.458 46.5322H112.022C107.421 46.5322 103.46 46.1724 103.46 42.4143C103.46 40.3553 105.787 38.5363 107.536 38.5363C107.763 38.5363 107.998 38.7049 108.338 38.9483C109.219 39.5799 110.804 40.7152 114.759 40.7152C120.816 40.7152 125.129 36.2374 125.129 30.4803C125.129 27.6351 123.905 24.4234 121.809 22.9108ZM123.854 55.8609C123.854 59.012 119.888 62.1632 113.833 62.1644C108.592 62.1632 105.447 59.132 105.447 56.4073C105.447 54.6481 106.145 52.8291 107.543 51.9828L118.553 52.4093C122.924 52.5892 123.854 53.622 123.854 55.8609ZM119.303 30.487C119.303 37.5701 117.675 39.3892 114.644 39.3892C111.151 39.3892 109.984 37.5701 109.984 30.487C109.984 23.4039 111.619 21.5848 114.644 21.5848C117.669 21.5848 119.303 23.4039 119.303 30.487ZM129.571 39.8771C131.695 50.1822 132.877 52.0246 138.191 52.0246C142.796 52.0246 146.219 49.5681 146.219 45.0938C146.219 42.5278 142.817 41.3075 138.947 39.9191C133.839 38.0869 127.914 35.9618 127.914 30.0647C127.914 23.9302 132.695 20.2455 139.49 20.2455C142.679 20.2455 145.752 21.1633 147.993 22.3915V32.2715H146.336C143.796 23.1946 143.147 21.5952 138.957 21.5952C135.235 21.5952 131.695 23.7413 131.695 27.1155C131.695 30.6621 135.551 32.0264 139.723 33.5027C144.642 35.243 150 37.1387 150 42.9478C150 49.2037 144.803 53.3743 137.716 53.3743C134.644 53.3743 130.922 52.4565 127.914 50.6749V39.8771H129.571ZM16.2065 45.2053V45.1326V45.126L17.4847 44.5973V44.8418C17.4847 51.213 14.9284 53.3742 10.1674 53.3742C5.98799 53.3742 3.66181 51.0875 3.66181 46.1636V23.2101H0V21.8882H3.65542V16.6868L9.11938 14.7239V21.8882H15.8615V23.2101H9.11938V47.9679C9.11938 50.2547 10.0524 51.213 12.2572 51.213C14.7559 51.213 16.2065 49.6533 16.2065 45.2053Z" fill="#B61F3A"/>
</svg>
