<svg width="122" height="76" viewBox="0 0 122 76" fill="none" xmlns="http://www.w3.org/2000/svg">
<g clip-path="url(#clip0_1216_675)">
<path d="M97.1001 72.438C96.2566 71.4554 95.0382 70.8719 93.726 70.8719H86.7903L87.6338 66.7572H96.5065C97.0689 66.7572 97.5688 66.358 97.6625 65.8053C97.8187 65.0376 98.0374 63.9628 98.2248 63.103C98.2873 62.7653 98.1936 62.3968 97.9749 62.1204C97.7562 61.8441 97.4126 61.6905 97.0689 61.6905C94.3196 61.6905 88.6648 61.6905 88.6648 61.6905L89.5396 57.3608H96.4753C99.5682 57.3608 102.286 55.1499 102.911 52.1406H84.6033H80.3857C79.6358 52.2327 78.9798 52.6319 78.5736 53.2461C77.1677 55.457 73.8561 60.6465 72.7939 62.3047L70.4507 52.1406C68.9511 51.9871 67.4827 52.5705 66.5142 53.7374C65.5145 54.9043 65.1396 56.4703 65.4832 57.9443C66.1706 60.9228 67.3577 66.0816 68.2013 69.6129L64.7334 75.478L59.516 52.1406H58.61C55.6108 52.1406 52.799 53.5839 51.2369 56.0711C48.1752 60.9228 43.0515 68.9681 40.3959 73.2057L37.3967 67.9548C40.5834 66.5115 42.864 63.9014 43.5201 60.5851C44.5823 55.457 41.2082 52.1406 35.241 52.1406H24.5562L23.2753 58.497C23.0566 54.5665 19.9012 52.1406 14.6213 52.1406H4.87375L0 76H2.78054C4.65506 76 6.27964 74.6796 6.65455 72.8679C6.96697 71.394 7.24814 69.9507 7.24814 69.9507H10.4973C16.0584 69.9507 20.3698 67.4942 22.2755 63.4101L19.7137 76H22.4942C24.3688 76 25.9933 74.6796 26.3682 72.8679C26.7432 71.0562 27.1493 69.0909 27.1493 69.0909H30.8983L34.6786 75.9693H38.5839H41.958H42.7391C44.1449 75.9693 45.4571 75.2323 46.1444 74.0348C46.7693 72.96 47.4254 71.8546 47.4254 71.8546H57.6727L58.485 75.9386H64.8584V75.9079L68.8574 75.8465C70.1383 75.6929 71.2942 74.9867 71.9191 73.9119C73.2312 71.701 75.0433 68.661 75.0433 68.661L84.2284 54.1366C83.4474 57.9443 81.7603 66.1123 80.6981 71.2711C80.4794 72.4073 80.7606 73.6049 81.5104 74.4954C82.2602 75.3859 83.3849 75.9079 84.5721 75.9079H98.0374C98.2561 74.741 97.9124 73.4206 97.1001 72.438ZM17.0581 60.9228C16.5895 63.2566 14.5588 64.7612 11.9032 64.7612H8.31037L9.80999 57.4222H13.4028C16.0584 57.4222 17.4955 58.8041 17.0581 60.9228ZM32.6479 63.8093H28.2115L29.5237 57.4529H33.9601C36.272 57.4529 37.8653 58.6812 37.4904 60.6158C37.0843 62.5503 34.9598 63.8093 32.6479 63.8093ZM50.3933 66.88L55.1421 58.9883L56.673 66.88H50.3933Z" fill="#898483"/>
<path d="M121.813 60.5851C122.875 55.457 119.532 52.1406 113.565 52.1406H102.974L98.0686 76H100.849C102.724 76 104.348 74.6796 104.723 72.8679C105.098 71.0562 105.504 69.0909 105.504 69.0909H109.253C109.253 69.0909 110.815 71.916 111.909 73.9426C112.596 75.2016 113.94 75.9693 115.377 75.9693H120.282L115.689 67.9241C118.845 66.5422 121.125 63.9014 121.813 60.5851ZM115.814 60.5851C115.408 62.5503 113.315 63.8093 111.003 63.8093H106.566L107.879 57.4529H112.315C114.627 57.4222 116.22 58.6505 115.814 60.5851Z" fill="#898483"/>
<path d="M48.144 35.5281C46.4881 36.2036 44.7073 36.6028 42.8016 36.6028C35.1473 36.6028 28.8989 30.3693 28.8989 22.6618C28.8989 14.9851 35.1473 8.72081 42.8016 8.72081C47.9877 8.72081 52.5491 11.5766 54.9235 15.8141C55.7982 12.6206 57.3291 9.67273 59.2973 7.12404C55.1422 2.76364 49.2687 0 42.8016 0C30.3048 0 20.1511 10.164 20.1511 22.6618C20.1511 22.9996 20.1511 23.3374 20.1824 23.6751C20.1824 23.7673 20.1824 23.8594 20.2136 23.9822C20.8697 32.7337 28.2116 39.6428 37.1155 39.6428C39.8961 39.6428 42.5204 38.9673 44.8323 37.7697C45.9883 37.1556 47.113 36.3879 48.144 35.5281Z" fill="#BE5C4F"/>
<path d="M101.943 22.6618C101.943 13.3268 94.3508 5.74219 85.0407 5.74219C80.8855 5.74219 77.074 7.24683 74.1372 9.73411C75.7306 9.08926 77.4801 8.72077 79.3234 8.72077C87.0089 8.72077 93.2261 14.9543 93.2261 22.6618C93.2261 30.3386 86.9777 36.6028 79.3234 36.6028C74.1372 36.6028 69.5759 33.747 67.2015 29.5095C66.3267 32.703 64.7959 35.6509 62.8276 38.1996C66.9516 42.5907 72.8251 45.3543 79.3234 45.3543C91.8202 45.3543 101.974 35.1903 101.974 22.6925H101.943V22.6618Z" fill="#BE5C4F"/>
<path d="M65.4208 22.2012C65.4833 19.6525 66.0144 17.2267 66.9516 15.0158C69.9509 7.98384 76.9178 3.04 85.0095 3.04C87.9775 3.04 90.7893 3.68485 93.2886 4.88242C89.4771 1.81172 84.6034 0 79.3235 0C72.8251 0 66.9516 2.76364 62.8277 7.15475C62.2029 7.8303 61.578 8.56727 61.0469 9.30424C58.2976 13.0505 56.673 17.6566 56.673 22.6618C56.673 22.9075 56.673 23.1531 56.6418 23.3681C56.6418 23.4909 56.6418 23.6444 56.6105 23.798C56.4856 26.101 55.9545 28.2812 55.1109 30.3079C52.1117 37.3398 45.1447 42.2836 37.053 42.2836C34.0851 42.2836 31.2733 41.6081 28.7427 40.4412C32.5854 43.5119 37.4904 45.3236 42.7703 45.3236C49.2687 45.3236 55.1422 42.56 59.2661 38.1689C59.8909 37.4933 60.5158 36.7564 61.0469 36.0194C63.7962 32.2731 65.4208 27.6671 65.4208 22.6618C65.4208 22.5083 65.4208 22.3547 65.4208 22.2012Z" fill="#BE5C4F"/>
<path d="M87.384 16.029C86.9153 16.0904 86.5092 16.336 86.2593 16.7045C85.7906 17.4415 83.7599 20.7579 81.9791 23.6443L80.6045 17.8714L80.1671 16.029C80.1358 16.029 80.1046 16.029 80.1046 16.029H78.605C78.1363 16.0904 77.7302 16.336 77.4803 16.7045C77.0116 17.4415 74.9809 20.7579 73.2001 23.6443L71.3568 15.9676C70.4196 15.8754 69.5135 16.2439 68.9199 16.9502C68.2951 17.6564 68.0764 18.6391 68.2639 19.5603C68.7012 21.4027 70.0759 27.5134 70.607 29.7243L72.1066 29.6936C72.9189 29.6015 73.6062 29.1716 74.0124 28.496C74.3873 27.8512 76.0431 25.1797 77.7302 22.4775C78.3238 24.9954 79.0424 28.2504 79.386 29.7243L80.8856 29.6936C81.6979 29.6015 82.3852 29.1716 82.7914 28.496C83.51 27.2985 88.8211 18.7619 90.227 16.551C90.3832 16.3053 90.1957 16.029 89.9146 16.029H87.384Z" fill="#898483"/>
<path d="M49.2687 19.5605C49.2687 19.929 48.9563 20.2668 48.5814 20.2668H46.4569C46.082 20.2668 45.8008 20.0211 45.7071 19.6833C45.5509 18.9771 44.9885 18.5472 43.8638 18.5472C42.6766 18.5472 41.8018 19.0385 41.6144 19.8983C41.4582 20.6353 41.9581 20.973 42.9578 21.188L44.8011 21.6179C47.2067 22.1706 48.6751 23.1532 48.2065 25.487C47.6753 28.2199 45.051 29.9088 41.5832 29.9088C38.8963 29.9088 36.6157 28.834 36.3033 26.3468C36.2095 25.7326 36.8031 25.1185 37.4592 25.1185H39.115C39.4275 25.1185 39.7399 25.3334 39.8024 25.6405C40.021 26.531 40.8958 27.053 42.2705 27.053C43.5514 27.053 44.3012 26.5924 44.4574 25.8555C44.5511 25.3948 44.3637 24.9035 43.2077 24.6886L41.0208 24.1973C38.3965 23.6138 37.3655 22.3549 37.8029 20.2054C38.334 17.4724 40.9271 15.7528 44.1762 15.7528C46.3007 15.7221 49.2062 16.4898 49.2687 19.5605Z" fill="#898483"/>
</g>
<defs>
<clipPath id="clip0_1216_675">
<rect width="122" height="76" fill="white"/>
</clipPath>
</defs>
</svg>
