<svg width="29" height="30" viewBox="0 0 29 30" fill="none" xmlns="http://www.w3.org/2000/svg">
<path d="M0 30L2.03845 22.2962C0.780581 20.0413 0.119625 17.485 0.120833 14.8637C0.124458 6.66875 6.5709 0 14.4915 0C18.3352 0.00125 21.9433 1.55 24.6572 4.36C27.3699 7.17 28.8634 10.905 28.8622 14.8775C28.8586 23.0738 22.4121 29.7425 14.4915 29.7425C12.0869 29.7413 9.71739 29.1175 7.61852 27.9325L0 30ZM7.97136 25.2413C9.99652 26.485 11.9298 27.23 14.4867 27.2313C21.0697 27.2313 26.4322 21.6887 26.4359 14.875C26.4383 8.0475 21.1011 2.5125 14.4963 2.51C7.90852 2.51 2.54958 8.0525 2.54716 14.865C2.54595 17.6462 3.33378 19.7287 4.65691 21.9075L3.44978 26.4675L7.97136 25.2413ZM21.7306 18.4113C21.6412 18.2563 21.402 18.1637 21.0419 17.9775C20.683 17.7913 18.9176 16.8925 18.5877 16.7687C18.2591 16.645 18.0198 16.5825 17.7794 16.955C17.5401 17.3263 16.8514 18.1637 16.6423 18.4113C16.4333 18.6588 16.223 18.69 15.8642 18.5037C15.5053 18.3175 14.3477 17.9263 12.9763 16.66C11.9093 15.675 11.1879 14.4587 10.9789 14.0863C10.7699 13.715 10.9571 13.5138 11.136 13.3288C11.2979 13.1625 11.4948 12.895 11.6749 12.6775C11.8573 12.4625 11.9166 12.3075 12.0374 12.0588C12.157 11.8113 12.0978 11.5938 12.0072 11.4075C11.9166 11.2225 11.1988 9.39375 10.9004 8.65C10.6079 7.92625 10.3119 8.02375 10.092 8.0125L9.40323 8C9.16398 8 8.7749 8.0925 8.44623 8.465C8.11757 8.8375 7.18957 9.735 7.18957 11.5638C7.18957 13.3925 8.47644 15.1587 8.65527 15.4062C8.83531 15.6537 11.1867 19.4062 14.7888 21.015C15.6455 21.3975 16.3149 21.6262 16.8357 21.7975C17.696 22.08 18.479 22.04 19.0977 21.945C19.7876 21.8387 21.2219 21.0462 21.5216 20.1787C21.8212 19.31 21.8212 18.5662 21.7306 18.4113Z" fill="#097B75"/>
</svg>
