<svg width="308" height="129" viewBox="0 0 308 129" fill="none" xmlns="http://www.w3.org/2000/svg">
<path d="M156.867 39.1467C150.972 39.1467 146.849 42.6977 146.849 48.6532C146.849 54.6074 150.972 58.1584 156.867 58.1584C162.761 58.1584 166.884 54.7178 166.884 48.6532C166.884 42.5887 162.784 39.1467 156.867 39.1467ZM193.189 39.5868H188.933C188.703 39.5868 188.508 39.7813 188.508 40.013V57.3045C188.508 57.5362 188.703 57.7307 188.933 57.7307H201.824C202.055 57.7307 202.249 57.5362 202.249 57.3045V53.8018C202.249 53.57 202.055 53.3755 201.824 53.3755H194.038C193.807 53.3755 193.614 53.1796 193.614 52.9478V40.013C193.614 39.7813 193.419 39.5868 193.189 39.5868ZM185.343 45.8334C185.343 42.5638 182.941 39.5868 178.333 39.5868H169.94C169.71 39.5868 169.517 39.7813 169.517 40.013V57.3045C169.517 57.5362 169.71 57.7307 169.94 57.7307H174.198C174.428 57.7307 174.621 57.5362 174.621 57.3045V51.8497H176.405L180.48 57.5611C180.565 57.6701 180.686 57.7307 180.819 57.7307H186.216V57.4259L181.838 51.7159C181.68 51.5076 181.765 51.2027 181.995 51.0813C184.639 49.7514 185.331 47.9455 185.331 45.8334H185.343ZM212.205 39.5868H204.905C204.675 39.5868 204.48 39.7813 204.48 40.013V57.3045C204.48 57.5362 204.675 57.7307 204.905 57.7307H212.205C218.67 57.7307 221.629 53.5341 221.629 48.5305C221.629 43.5282 218.56 39.5868 212.205 39.5868ZM138.894 45.7975V45.8582C138.481 47.3592 138.154 48.7995 137.899 50.1652L134.564 39.8792C134.504 39.7082 134.346 39.5868 134.164 39.5868H131.253C131.072 39.5868 130.902 39.7082 130.852 39.8792L127.626 50.1542C127.373 48.8119 127.105 47.3344 126.669 45.9562L124.449 39.8544C124.389 39.6833 124.231 39.5743 124.049 39.5743H119.38C119.09 39.5743 118.883 39.8668 118.992 40.1482L125.395 57.4135C125.456 57.5845 125.613 57.6949 125.783 57.6949H129.313C129.495 57.6949 129.653 57.5845 129.713 57.4135L132.321 50.1045C132.454 49.7389 132.975 49.7265 133.108 50.1045L135.801 57.4135C135.861 57.5845 136.019 57.6949 136.201 57.6949H139.766C139.948 57.6949 140.106 57.5845 140.166 57.4135L146.424 40.1482C146.522 39.8668 146.328 39.5743 146.025 39.5743H141.355C141.174 39.5743 141.017 39.6833 140.955 39.8544L138.894 45.7975ZM156.709 53.7893C153.908 53.7162 151.955 51.6303 151.955 48.6656C151.955 45.6996 153.968 43.5406 156.879 43.5406C159.79 43.5406 161.524 45.2968 161.767 48.0421C162.033 51.0937 159.753 53.8749 156.709 53.7893ZM212.205 53.3989H209.526V43.8689H212.205C215.323 43.8689 216.583 45.9921 216.583 48.4822C216.583 50.9709 215.456 53.3989 212.205 53.3989ZM178.406 48.0311H175.059C174.828 48.0311 174.634 47.8352 174.634 47.6034V44.1007C174.634 43.8689 174.828 43.6744 175.059 43.6744H178.345C179.679 43.6744 180.333 44.7849 180.333 45.9314C180.333 47.0792 179.74 48.0311 178.406 48.0311ZM127.969 29.7753C127.969 25.6021 124.234 24.1508 120.657 23.7604C118.873 23.5769 117.673 23.3935 117.673 22.1491C117.673 21.1848 118.885 20.8068 120.122 20.8068C121.566 20.8068 122.875 21.0634 124.028 21.8318C124.209 21.9546 124.44 21.9297 124.574 21.7587L126.587 19.172C126.732 18.9775 126.697 18.6961 126.502 18.5498C124.113 16.8171 121.421 16.4143 117.673 16.8171C114.725 17.1344 112.397 19.7211 112.58 22.6857C112.835 26.7623 116.121 27.7018 119.904 28.055C121.894 28.2385 122.925 28.8124 122.925 29.7146C122.925 30.7272 121.761 31.3259 120.086 31.3259C118.655 31.3259 116.812 31.0445 115.126 29.5684C114.956 29.4097 114.69 29.4221 114.532 29.5932L112.264 32.2158C112.119 32.3868 112.131 32.6558 112.288 32.8145C114.677 35.2066 116.945 35.7309 120.062 35.7061C124.101 35.6826 127.969 33.9126 127.969 29.8002V29.7753ZM195.994 16.5853C190.1 16.5853 185.977 20.1363 185.977 26.0905C185.977 32.0461 190.1 35.5971 195.994 35.5971C201.889 35.5971 206.012 32.1551 206.012 26.0905C206.012 20.026 201.912 16.5853 195.994 16.5853ZM141.565 23.9549H135.913C135.683 23.9549 135.488 23.7604 135.488 23.5287V17.4751C135.488 17.2434 135.295 17.0489 135.065 17.0489H130.807C130.577 17.0489 130.382 17.2434 130.382 17.4751V34.7666C130.382 34.9983 130.577 35.1929 130.807 35.1929H135.065C135.295 35.1929 135.488 34.9983 135.488 34.7666V28.7503C135.488 28.5185 135.683 28.324 135.913 28.324H141.565C141.795 28.324 141.989 28.5185 141.989 28.7503V34.7666C141.989 34.9983 142.183 35.1929 142.414 35.1929H146.622C146.852 35.1929 147.047 34.9983 147.047 34.7666V17.4751C147.047 17.2434 146.852 17.0489 146.622 17.0489H142.414C142.183 17.0489 141.989 17.2434 141.989 17.4751V23.5287C141.989 23.7604 141.795 23.9549 141.565 23.9549ZM223.343 17.1951L219.061 22.7478C218.891 22.9672 218.563 22.9672 218.394 22.7478L214.112 17.1951C214.027 17.0971 213.907 17.0364 213.785 17.0364H209.08C208.849 17.0364 208.655 17.2323 208.655 17.4641V34.7542C208.655 34.9859 208.849 35.1818 209.08 35.1818H213.288C213.519 35.1818 213.712 34.9859 213.712 34.7542V25.5663C213.712 25.1759 214.21 24.9924 214.452 25.2973L218.212 29.8608H219.109L222.979 25.249C223.233 24.9441 223.718 25.1262 223.718 25.5166V34.7417C223.718 34.9735 223.913 35.1694 224.143 35.1694H228.351C228.582 35.1694 228.776 34.9735 228.776 34.7417V17.4517C228.776 17.2199 228.582 17.024 228.351 17.024H223.67C223.536 17.024 223.415 17.0847 223.343 17.1827V17.1951ZM155.354 32.1923H162.849C163.019 32.1923 163.177 32.3013 163.237 32.4599L164.208 34.9128C164.268 35.0715 164.426 35.1818 164.596 35.1818H169.119C169.422 35.1818 169.628 34.8645 169.507 34.5831L161.818 17.293C161.745 17.1468 161.6 17.0364 161.43 17.0364H156.821C156.651 17.0364 156.506 17.1344 156.433 17.2806L148.72 34.5707C148.599 34.8521 148.792 35.1694 149.108 35.1694H153.583C153.753 35.1694 153.911 35.059 153.971 34.9004L154.942 32.4475C155.002 32.2889 155.16 32.1799 155.33 32.1799L155.354 32.1923ZM184.521 30.8127H176.736C176.505 30.8127 176.311 30.6182 176.311 30.3865V17.4393C176.311 17.2075 176.116 17.0116 175.885 17.0116H171.63C171.399 17.0116 171.204 17.2075 171.204 17.4393V34.7307C171.204 34.9625 171.399 35.157 171.63 35.157H184.521C184.751 35.157 184.946 34.9625 184.946 34.7307V31.228C184.946 30.9962 184.751 30.8003 184.521 30.8003V30.8127ZM195.824 31.228C193.023 31.1425 191.071 29.0676 191.071 26.1029C191.071 23.1382 193.083 20.9654 195.994 20.9654C198.905 20.9654 200.638 22.723 200.881 25.4683C201.148 28.5185 198.868 31.3135 195.824 31.2156V31.228ZM159.502 23.0886L161.175 27.3114C161.284 27.5915 161.079 27.8963 160.787 27.8963H157.415C157.112 27.8963 156.919 27.5915 157.027 27.3114L158.726 23.0886C158.871 22.7354 159.368 22.7354 159.502 23.0886Z" fill="#097D77"/>
<path d="M267.434 128.43L274.231 92.9212C274.994 88.9548 275.757 82.9956 276.158 79.4059C276.177 79.2383 276.317 79.1123 276.484 79.1123C278.047 79.1123 285.341 79.1123 285.341 79.1123L284.688 84.5051H284.819C287.694 80.6914 291.745 78.7179 295.929 78.7179C303.51 78.7179 307.17 84.7675 307.17 92.0019C307.17 104.101 299.196 115.148 287.04 115.148C284.296 115.148 281.813 114.489 280.637 113.702H280.374L277.63 128.43H267.434ZM61.3038 112.255C57.2512 114.359 52.2848 115.017 48.3634 115.017C38.5589 115.017 33.4615 109.361 33.4615 100.288C33.4615 89.6339 41.1733 78.5859 53.7217 78.5859C60.7806 78.5859 65.7469 82.5315 65.7469 89.1075C65.7469 97.9196 57.12 101.207 43.1347 100.812C43.2644 101.865 43.5267 103.443 44.3107 104.364C45.6179 106.205 47.9714 107.126 50.9777 107.126C54.768 107.126 57.904 106.205 60.6495 104.89L61.3038 112.255ZM136.724 92.9212C136.724 105.679 127.966 115.017 116.072 115.017C107.314 115.017 101.431 109.23 101.431 100.55C101.431 88.4507 109.797 78.4554 122.084 78.4554C131.364 78.4554 136.724 84.8995 136.724 92.9212ZM188.615 105.022C190.575 106.073 194.236 107.388 197.634 107.388C200.511 107.388 202.079 105.941 202.079 104.232C202.079 102.522 200.903 101.339 197.764 99.7612C193.844 97.7876 190.446 94.8948 190.446 90.4228C190.446 83.1899 196.719 78.3235 205.738 78.3235C209.791 78.3235 212.927 79.2443 214.627 80.165L212.144 87.3979C210.706 86.7411 208.221 85.9508 205.215 85.9508C202.471 85.9508 200.641 87.1355 200.641 88.9756C200.641 90.4228 202.079 91.606 204.823 92.9212C208.613 94.8948 212.666 97.6572 212.666 102.522C212.666 110.545 205.869 114.884 196.719 114.753C192.275 114.623 188.223 113.57 186.132 111.991L188.615 105.022ZM215.151 114.227L225.345 60.7928H235.54L230.966 83.8467H231.097C233.972 80.6899 237.632 78.5859 242.206 78.5859C247.566 78.5859 250.964 82.0051 250.964 88.0548C250.964 89.6339 250.703 92.3948 250.311 94.3684L246.521 114.359H236.324L239.985 95.2892C240.246 93.974 240.377 92.3948 240.377 90.9491C240.377 88.5812 239.462 87.0035 236.848 87.0035C233.188 87.0035 229.657 91.4755 228.352 98.4445L225.345 114.489H215.151V114.227ZM9.01894 66.2241H36.9909L35.2918 75.0347H17.6459L15.4236 86.3452H32.1543L30.4552 95.0253H13.8556L10.1949 114.227H0L9.01894 66.2241ZM268.29 88.0548L263.383 114.227H253.186C253.186 114.227 256.436 97.0403 256.568 96.6044C262.036 94.1667 266.078 90.4376 268.29 88.0548ZM83.6463 75.0896L76.2042 114.227H66.1389L73.1065 77.198C76.7672 76.9489 80.2996 76.2268 83.6463 75.0896ZM105.099 58.5435L93.3269 114.227H83.132L92.2688 71.0016C97.3781 67.8181 101.759 63.5611 105.099 58.5435ZM150.448 79.3747L150.58 94.1045C150.58 98.0501 150.448 101.339 150.186 105.284H150.317C151.493 101.601 153.063 98.0501 154.631 94.5004L161.427 79.3747H169.793L170.709 93.974C170.838 98.0501 170.969 101.471 170.838 105.284H171.101C172.277 101.471 173.453 97.9196 174.891 93.842L180.904 79.3747H191.23L174.368 114.227H164.826L163.779 102.128C163.52 98.4445 163.52 95.0252 163.52 90.9491H163.387C161.559 95.8141 160.643 98.4445 159.336 101.601L153.455 114.227H143.781L140.122 79.3747H150.448ZM111.889 100.418C111.889 104.496 113.848 107.257 117.509 107.257C122.998 107.257 126.136 98.9724 126.136 93.0532C126.136 89.8979 124.697 86.4772 120.646 86.4772C114.763 86.3467 111.889 95.0252 111.889 100.418ZM282.073 105.679C283.249 106.732 284.688 107.257 286.779 107.257C292.27 107.257 296.452 99.4987 296.452 92.6588C296.452 89.8964 295.276 87.0035 292.008 87.0035C288.217 87.0035 284.688 91.3436 283.381 98.1835L282.073 105.679ZM52.2848 86.0827C47.5779 86.0827 44.7027 90.0284 44.0499 93.3156C52.0225 93.4476 56.0751 92.2644 56.0751 88.9756C56.0751 87.266 54.6368 86.0827 52.2848 86.0827ZM263.442 87.4335C260.565 87.4335 258.344 85.3295 258.344 82.3047C258.344 78.7534 261.088 76.5189 264.226 76.5189C267.232 76.5189 269.453 78.491 269.453 81.6478C269.453 85.3295 266.709 87.4335 263.442 87.4335Z" fill="#097D77"/>
<path d="M100.437 17.5372C97.0272 18.4702 94.1413 20.1861 91.1007 22.0054C89.7531 22.8126 88.3609 23.6466 86.923 24.4014C83.1123 26.4026 80.0197 27.3773 77.4711 27.3773C74.9282 27.3773 72.8514 26.3958 71.3001 24.4631C70.4502 23.3968 69.7495 22.2228 69.0723 21.0867C68.0757 19.4144 67.1329 17.8343 65.8509 16.811C64.6556 15.8531 63.2021 15.3255 61.7586 15.3255C59.2441 15.3255 57.2787 16.9978 56.6764 19.5645C59.0795 20.8849 60.7254 22.6731 60.9786 24.7695C61.168 26.3559 60.5793 27.8756 59.3611 28.9413C57.8495 30.2529 56.1608 30.8901 54.1966 30.8901C51.4575 30.8901 48.631 29.6363 45.8981 28.4243C44.3066 27.7211 42.8048 27.0553 41.3464 26.6362C39.4931 26.1161 37.9975 25.8757 36.648 25.8757C36.6227 25.8757 36.5991 25.8763 36.575 25.8763C35.7765 28.8204 35.3425 31.914 35.3425 35.1073C35.3425 54.4755 51 70.2344 70.246 70.2344C89.4869 70.2344 105.141 54.4755 105.141 35.1073C105.141 28.7083 103.423 22.7086 100.437 17.5372ZM91.5718 45.2221L91.4734 44.9773C90.686 43.102 89.6095 41.3138 88.2693 39.6583C84.242 42.2269 80.69 44.124 76.6769 45.0103C77.4445 48.2341 79.9064 50.8867 84.814 53.8115L85.6311 54.2936C87.3358 55.2939 88.0421 55.7093 88.0013 56.3377C87.9617 56.9693 87.2411 57.2751 85.3147 58.0916C85.0077 58.2212 84.6704 58.3644 84.3027 58.5233C80.0166 60.37 75.5107 61.3067 70.9046 61.3067C67.1632 61.3067 63.3309 60.6826 59.5183 59.4513C58.8801 59.2426 58.1379 58.9268 58.0451 58.3227C57.9547 57.7198 58.5774 57.2707 58.7836 57.1225C63.095 54.0301 64.9434 50.3112 64.0124 46.6216C58.7037 45.6294 54.6671 44.4049 50.9511 42.656L50.5871 42.4791L52.1068 40.141L52.3594 40.2948C56.2351 42.0519 59.9275 43.0222 63.0325 43.1051H65.4578L65.7519 43.0945L65.8354 43.3953C66.1734 44.6422 66.3331 46.0554 66.296 47.4867C66.2093 50.8836 64.8883 54.1697 62.676 56.5053C62.3008 56.8989 62.1467 57.1001 62.0935 57.201C62.2693 57.2932 62.7273 57.404 62.9384 57.4545C65.7673 58.1502 68.3332 58.489 70.7851 58.489C73.8412 58.489 76.6881 57.9689 79.4817 56.9002L79.7758 56.7874C81.1252 56.2705 82.2091 55.8575 82.4289 55.6271C82.3187 55.4639 81.8711 55.1338 81.4725 54.8386C81.0101 54.4979 80.4375 54.0713 79.769 53.5051C77.0595 51.2106 75.5064 48.4029 75.0205 44.9225C75.0205 44.9225 74.9158 44.1321 74.901 43.7783C74.8898 43.6581 74.8849 43.561 74.8849 43.4657V42.3446L75.2086 42.2518C78.7729 41.4079 82.5422 39.725 86.1343 37.3769C81.8377 33.3646 76.1124 31.0745 70.3431 31.0745C68.2533 31.0745 66.1592 31.3703 64.1214 31.9533C58.5818 33.5303 53.7738 36.8581 51.13 41.0559L50.2906 42.3732L50.0213 42.2163C46.3159 40.3341 43.2214 37.6478 40.286 33.7657C39.8379 33.2008 39.6763 32.6266 39.862 32.2379C39.9697 32.0112 40.1882 31.876 40.4457 31.876C40.7831 31.876 41.1756 32.104 41.6095 32.5531C43.6659 34.6676 46.5276 37.3414 50.5289 39.3992C53.8964 35.192 58.4369 31.9825 63.6813 30.1097C66.6067 29.0683 69.6158 28.5389 72.6248 28.5389C83.1736 28.5389 92.2855 34.8781 95.8368 44.6889L96.0108 45.2271L91.5718 45.2221ZM98.3897 28.8908L98.3358 29.0297C96.6663 31.6811 95.2259 33.582 92.002 36.6102L91.7327 36.8537L89.6714 34.8139L89.9741 34.553C92.3573 32.5487 94.7573 30.4398 96.1631 28.58C96.5116 28.0955 97.0136 27.8015 97.4983 27.8015C97.7942 27.8015 98.0486 27.9142 98.2176 28.116C98.3835 28.3166 98.4448 28.5937 98.3897 28.8908ZM50.2634 27.3437C52.204 28.0923 53.8995 28.4717 55.3022 28.4717C57.5975 28.4717 58.9978 27.4259 59.0479 25.6708C59.1011 23.7238 57.3877 21.5383 54.75 21.3882L54.318 21.3577L54.3879 20.9204C55.3462 15.972 58.2617 12.899 61.9975 12.899C65.2399 12.899 68.4619 15.1854 70.8371 19.1728C72.4689 22.0471 74.0412 23.778 75.5138 24.3273C76.3092 24.6294 77.148 24.7751 78.0784 24.7751C80.7464 24.7751 83.7053 23.5245 86.2464 22.3006C87.6763 21.6105 89.2975 20.7062 91.0122 19.7495C93.7947 18.1962 96.6595 16.6005 99.2402 15.5965C92.972 6.1992 82.3162 -0.000457764 70.2453 -0.000457764C55.1697 -0.000457764 42.2972 9.66526 37.4268 23.1564C41.4275 23.8453 46.6334 25.9087 49.2773 26.955C49.6654 27.1089 49.9972 27.2397 50.2634 27.3437ZM60.6827 20.1668C60.0266 20.1668 59.4911 19.6019 59.4911 18.9081C59.4911 18.2161 60.0266 17.6524 60.6827 17.6524C61.3407 17.6524 61.8731 18.2161 61.8731 18.9081C61.8731 19.6019 61.3407 20.1668 60.6827 20.1668Z" fill="#DFC387"/>
</svg>
