<svg width="120" height="45" viewBox="0 0 120 45" fill="none" xmlns="http://www.w3.org/2000/svg">
<path fill-rule="evenodd" clip-rule="evenodd" d="M9.42579 17.1659C10.6517 17.6353 11.7223 17.8738 12.6091 17.8738C14.0586 17.8738 14.9441 17.2168 14.9752 16.1152C15.0087 14.8932 13.9269 13.5208 12.2601 13.4265L11.9869 13.4078L12.0303 13.1334C12.6352 10.0273 14.4771 8.0986 16.8382 8.0986C18.8863 8.0986 20.922 9.53427 22.4224 12.0367C23.4533 13.8413 24.4457 14.928 25.376 15.2732C25.879 15.462 26.4081 15.5539 26.9956 15.5539C28.681 15.5539 30.5503 14.769 32.155 14.0002C33.0579 13.5668 34.0826 12.9992 35.1656 12.3981C36.9244 11.4232 38.7328 10.421 40.3635 9.79134C36.4039 3.8922 29.6734 0 22.0473 0C12.5247 0 4.39308 6.06805 1.31657 14.538C3.83355 14.9684 7.10433 16.2547 8.78129 16.9142L8.80229 16.9225L9.03035 17.0119C9.17951 17.0704 9.31196 17.1224 9.42579 17.1659ZM95.0634 14.3096C95.0634 10.8426 97.4651 8.77705 100.901 8.77705C104.351 8.77705 106.737 10.7957 106.737 14.3096C106.737 17.8368 104.352 19.8422 100.901 19.8422C97.4639 19.8422 95.0634 17.8368 95.0634 14.3096ZM98.035 14.3096C98.035 16.0732 99.2203 17.2943 100.901 17.2943C102.641 17.2943 103.766 16.0576 103.766 14.3096C103.766 12.5003 102.641 11.325 100.901 11.325C99.2047 11.325 98.035 12.5605 98.035 14.3096ZM56.6707 19.8868C59.0269 19.8712 61.2765 18.8462 61.2765 16.4486C61.2765 14.0222 59.1011 13.1789 57.0155 12.9515C55.9798 12.8457 55.2746 12.741 55.2746 12.0168C55.2746 11.4586 55.9798 11.2324 56.6994 11.2324C57.6153 11.2324 58.4402 11.4141 59.161 11.9566L60.6312 10.0727C59.507 9.18253 58.275 8.82163 56.7006 8.82163C54.4797 8.82163 52.3042 9.78644 52.3042 12.0168C52.3042 14.6405 54.2845 15.2288 56.5797 15.4393C57.7362 15.5452 58.3349 15.8772 58.3349 16.4041C58.3349 16.9924 57.6596 17.3389 56.6838 17.3389C55.7991 17.3389 54.6437 17.1584 53.6081 16.1479L51.9726 18.0318C53.4309 19.5704 54.7814 19.9013 56.6707 19.8868ZM69.4395 13.0572H65.6573V9.04765H62.6869V19.6004H65.6573V15.6052H69.4395V19.6004H72.38V9.04765H69.4395V13.0572ZM73.2192 19.5847L77.9305 9.03201H80.9308L85.6265 19.5847H82.4466L81.7557 17.85H77.0601L76.3692 19.5847H73.2192ZM79.4163 11.9866L78.0658 15.349H80.7524L79.4163 11.9866ZM94.4647 17.0536H89.4385V9.03201H86.4669V19.5859H94.4647V17.0536ZM116.909 9.03201L114.149 12.6049L111.388 9.03201H108.281V19.5847H111.222V13.3147L113.849 16.4942H114.373L117.058 13.299V19.5847H120V9.03201H116.909ZM67.1958 29.2749C67.3467 28.4762 67.5418 27.6316 67.7813 26.7571L69.042 23.124H72.283L68.4577 33.6623H66.0416L64.1811 28.6121L62.3804 33.6623H59.9799L56.0636 23.124H59.3046L60.6551 26.8329C60.8837 27.5488 61.0286 28.3141 61.164 29.029L61.164 29.0293V29.0293L61.2107 29.2749L63.1455 23.124H65.2012L67.1958 29.2749ZM78.2526 22.8679C74.8164 22.8679 72.4171 24.9334 72.4171 28.4004C72.4171 31.9288 74.8176 33.933 78.2526 33.933C81.7031 33.933 84.0893 31.9288 84.0893 28.4004C84.0893 24.8889 81.7043 22.8679 78.2526 22.8679ZM78.2526 31.3863C76.5728 31.3863 75.3863 30.1652 75.3863 28.4016C75.3863 26.6525 76.5573 25.417 78.2526 25.417C79.9934 25.417 81.1188 26.5935 81.1188 28.4016C81.1188 30.1496 79.9934 31.3863 78.2526 31.3863ZM90.7651 23.1228C93.4518 23.1228 94.8466 24.8575 94.8466 26.7571C94.8466 28.0539 94.3964 29.1546 92.6245 29.939L95.3555 33.4963V33.6767H92.0845L89.6385 30.2554H88.6041V33.6755H85.6336V23.1228H90.7651ZM88.6041 28.0383H90.7951C91.5757 28.0383 91.9205 27.45 91.9205 26.8172C91.9205 26.1544 91.5457 25.506 90.7651 25.506H88.6041V28.0383ZM99.6632 23.124H96.6916V33.6779H104.688V31.1444H99.6632V23.124ZM105.993 23.124H110.495C114.201 23.124 115.986 25.4169 115.984 28.3246C115.984 31.2346 114.259 33.6767 110.494 33.6767H105.993V23.124ZM108.935 31.1588H110.495C112.385 31.1588 113.045 29.7429 113.046 28.2945C113.046 26.8485 112.311 25.6118 110.495 25.6118H108.935V31.1588ZM35.2215 13.8152C37.1417 12.6726 38.965 11.5946 41.1187 11.0097C43.0053 14.2561 44.0909 18.0228 44.0909 22.0392C44.0909 34.1977 34.2018 44.0908 22.0473 44.0908C9.89029 44.0908 0 34.1989 0 22.0392C0 20.0347 0.273247 18.0936 0.776269 16.2456C0.783722 16.2456 0.791484 16.2453 0.799247 16.245C0.80701 16.2447 0.814772 16.2444 0.822224 16.2444C1.6755 16.2444 2.61944 16.3947 3.79068 16.7213C4.71227 16.9846 5.66118 17.4019 6.66598 17.844L6.67329 17.8472C8.39745 18.6063 10.1809 19.3914 11.9086 19.3914C13.1494 19.3914 14.2163 18.9915 15.1714 18.1681C15.9402 17.4987 16.3128 16.5449 16.1924 15.5489C16.0334 14.2325 14.9926 13.111 13.4748 12.2814C13.8561 10.6706 15.0969 9.62119 16.6854 9.62119C17.5971 9.62119 18.515 9.95278 19.2701 10.5539C20.0812 11.196 20.6761 12.187 21.3058 13.2377C21.7331 13.9518 22.1765 14.6882 22.713 15.3576C23.6942 16.571 25.0058 17.187 26.6118 17.187C28.2214 17.187 30.1751 16.576 32.5822 15.3191C33.4901 14.846 34.3707 14.3219 35.2215 13.8152ZM15.2546 11.8703C15.2546 12.3062 15.5925 12.6602 16.0073 12.6602C16.4221 12.6602 16.7587 12.3062 16.7587 11.8703C16.7587 11.4356 16.4234 11.0817 16.0073 11.0817C15.5925 11.0817 15.2546 11.4356 15.2546 11.8703ZM35.4575 28.2352L35.5196 28.3892L38.3254 28.3917L38.2148 28.0539C35.9717 21.8939 30.2161 17.9148 23.5526 17.9148C21.6511 17.9148 19.7508 18.2464 17.9026 18.9009C14.5901 20.077 11.7223 22.0914 9.59469 24.7329C7.0684 23.4413 5.26 21.7623 3.96084 20.4346C3.68635 20.1527 3.43918 20.0099 3.22555 20.0099C3.06285 20.0099 2.92498 20.0944 2.85667 20.2372C2.73992 20.4806 2.84177 20.8407 3.12495 21.1959C4.9793 23.6338 6.93302 25.3204 9.27425 26.5014L9.4444 26.5996L9.97475 25.7724C11.6453 23.1358 14.6833 21.0469 18.1821 20.0571C19.4701 19.6907 20.7928 19.5057 22.1131 19.5057C25.7572 19.5057 29.374 20.9438 32.0879 23.4625C29.8187 24.9366 27.4377 25.9923 25.1859 26.5226L24.981 26.5809V27.2851C24.981 27.3447 24.9847 27.4056 24.9909 27.4813C25.0008 27.7036 25.0667 28.2004 25.0667 28.2004C25.3735 30.385 26.3547 32.1472 28.0662 33.5879C28.4885 33.9431 28.8499 34.2101 29.1418 34.4249L29.171 34.4465C29.4153 34.6269 29.6785 34.8213 29.7454 34.9205C29.6124 35.0606 28.9698 35.3059 28.1598 35.6152L28.0699 35.6495L27.8836 35.7203C26.1187 36.3909 24.3202 36.7175 22.3901 36.7175C20.8413 36.7175 19.2204 36.5052 17.4331 36.068C17.299 36.037 17.0096 35.9674 16.8991 35.909C16.9326 35.8457 17.0295 35.719 17.2667 35.4719C18.664 34.0052 19.4986 31.9423 19.5533 29.8099C19.5769 28.912 19.4763 28.0253 19.2627 27.2416L19.2105 27.0529L19.0242 27.0591H17.4928C15.5304 27.0057 13.1978 26.3971 10.7498 25.2943L10.5908 25.1974L9.63071 26.6654L9.86048 26.7772C12.2079 27.875 14.7578 28.6438 18.1113 29.266C18.6988 31.5822 17.5313 33.917 14.8075 35.8581L14.8046 35.8602C14.6725 35.9555 14.285 36.2348 14.3417 36.6107C14.4001 36.9895 14.8696 37.1882 15.272 37.3186C17.6803 38.0911 20.101 38.4836 22.4646 38.4836C25.3735 38.4836 28.2202 37.8961 30.9278 36.7362C31.0885 36.6674 31.2404 36.6034 31.3828 36.5433C31.4462 36.5166 31.5078 36.4907 31.5675 36.4654C32.7847 35.9538 33.2392 35.7613 33.2641 35.3651C33.2901 34.9715 32.8433 34.7107 31.7672 34.0827L31.7662 34.0822L31.2507 33.7804C28.1506 31.9448 26.5956 30.2794 26.11 28.255C28.645 27.6999 30.8893 26.5077 33.433 24.8956C34.2801 25.9351 34.9594 27.0578 35.4575 28.2352ZM39.7922 18.224L39.827 18.1371C39.8617 17.9508 39.822 17.7769 39.7189 17.6502C39.6121 17.5236 39.4506 17.4528 39.2643 17.4528C38.9575 17.4528 38.6408 17.6378 38.421 17.9421C37.5329 19.1095 36.0164 20.4334 34.5111 21.6915L34.3198 21.8554L35.6214 23.1358L35.7916 22.9831C37.8273 21.0817 38.7377 19.8882 39.7922 18.224Z" fill="#DFC387"/>
</svg>
