<svg width="35" height="35" viewBox="0 0 35 35" fill="none" xmlns="http://www.w3.org/2000/svg">
<path d="M0.554443 34.5302C0.625951 34.3126 0.686808 34.1255 0.749187 33.9383C1.66509 31.2374 2.581 28.538 3.49995 25.8386C3.53798 25.726 3.5319 25.6393 3.46952 25.5343C2.63425 24.1268 2.01807 22.6295 1.63162 21.0378C1.28778 19.6197 1.12803 18.1802 1.17671 16.7224C1.31516 12.4786 2.85486 8.81143 5.7821 5.74532C7.97297 3.45069 10.6324 1.93057 13.7073 1.14692C14.6703 0.901938 15.6486 0.749774 16.6406 0.684344C17.6265 0.618913 18.6109 0.631086 19.5937 0.736079C21.2764 0.915633 22.8983 1.33256 24.4486 2.01274C27.7638 3.46895 30.3518 5.75293 32.1973 8.86926C33.1451 10.47 33.7841 12.1895 34.1402 14.017C34.3973 15.3362 34.487 16.6677 34.4186 18.0067C34.309 20.137 33.8115 22.1775 32.8956 24.107C31.2677 27.5291 28.7604 30.1053 25.398 31.846C23.8568 32.6434 22.2227 33.1668 20.5096 33.4453C19.1723 33.6629 17.8273 33.7192 16.4778 33.6111C14.1637 33.4286 11.9789 32.791 9.93106 31.6969C9.80782 31.63 9.70284 31.6269 9.57352 31.668C6.62802 32.6084 3.67947 33.5442 0.732451 34.4815C0.686808 34.4967 0.639644 34.5074 0.555965 34.5302H0.554443ZM12.6986 9.08228C12.5418 9.08228 12.3836 9.0762 12.2269 9.08228C11.7994 9.10359 11.4282 9.25727 11.1239 9.56312C11.0767 9.61029 11.028 9.65594 10.9809 9.70311C9.73479 10.9174 9.30575 12.3919 9.59026 14.0915C9.70893 14.7945 9.96605 15.4519 10.2749 16.091C10.5533 16.6707 10.917 17.1987 11.2608 17.7389C12.1052 19.0658 13.0743 20.2922 14.2048 21.3878C15.1344 22.2886 16.1446 23.086 17.2963 23.684C18.4633 24.288 19.6835 24.7658 20.9341 25.1676C21.3494 25.2999 21.7694 25.408 22.2106 25.4217C22.5894 25.4338 22.9591 25.3517 23.3227 25.2786C24.2204 25.0991 24.9918 24.6563 25.6505 24.0202C25.8209 23.8559 25.964 23.6672 26.0568 23.4451C26.2606 22.9566 26.3945 22.4499 26.4356 21.9204C26.4721 21.4456 26.4204 21.3498 26.002 21.1246C25.0602 20.6179 24.1185 20.1096 23.1645 19.6273C22.9652 19.5268 22.7659 19.4249 22.5514 19.3564C22.2227 19.2514 22.0265 19.3092 21.8165 19.5786C21.3829 20.1401 20.8991 20.6559 20.4183 21.1748C20.1505 21.4624 19.9299 21.5004 19.5724 21.3361C19.402 21.2569 19.2362 21.1702 19.0673 21.0896C16.7684 20.0031 15.0842 18.2837 13.8777 16.0681C13.7027 15.7471 13.7331 15.5356 13.9933 15.286C14.2215 15.0684 14.4254 14.8295 14.6429 14.6028C14.8666 14.3685 15.04 14.1022 15.1907 13.8176C15.3063 13.6 15.323 13.3824 15.2317 13.1542C15.18 13.0249 15.1268 12.897 15.0781 12.7662C14.7266 11.8273 14.3767 10.887 14.0268 9.94658C13.9568 9.75941 13.8792 9.57682 13.7636 9.41096C13.6145 9.19793 13.4151 9.08076 13.1519 9.08076C13.0013 9.08076 12.8492 9.08076 12.6986 9.08076V9.08228Z" fill="#DFC387"/>
</svg>
