<svg width="33" height="33" viewBox="0 0 33 33" fill="none" xmlns="http://www.w3.org/2000/svg">
<path fill-rule="evenodd" clip-rule="evenodd" d="M32.9964 16.2399C32.8211 7.3538 25.4331 0.287326 16.5324 0.470017C7.66821 0.660015 0.587124 8.04072 0.769815 16.9122C0.959813 25.8202 8.34051 32.8866 17.2485 32.6966C26.1127 32.5066 33.1791 25.1259 32.9964 16.2399ZM26.2072 6.54437C26.382 6.54353 26.5636 6.54265 26.7557 6.54265V6.54996C26.5764 6.74243 26.4023 6.929 26.2318 7.11165C25.8328 7.53925 25.4539 7.9453 25.075 8.35494C23.0435 10.5472 21.0046 12.7322 18.9585 14.9172C18.805 15.0707 18.8708 15.1583 18.9658 15.2826C19.9633 16.6126 20.9626 17.9407 21.9619 19.2689C22.9612 20.597 23.9606 21.9252 24.9581 23.2552C25.3454 23.774 25.7345 24.291 26.1236 24.8081C26.5128 25.3251 26.9019 25.8421 27.2892 26.3609C27.3207 26.4059 27.3494 26.4537 27.3788 26.5025C27.3971 26.533 27.4157 26.5639 27.4353 26.5948C27.3342 26.6454 27.2417 26.6397 27.1545 26.6345C27.1283 26.6329 27.1026 26.6313 27.0773 26.6313C26.4688 26.6313 25.8596 26.6305 25.2498 26.6297C24.0286 26.6281 22.8053 26.6264 21.5819 26.6313C21.3335 26.6386 21.18 26.5582 21.0339 26.3609C20.4249 25.5425 19.8151 24.7249 19.2054 23.9072C17.9858 22.2719 16.7662 20.6366 15.5531 18.9948C15.3924 18.7756 15.3266 18.8195 15.1731 18.9875C13.6288 20.6537 12.0844 22.3134 10.54 23.9731C9.76786 24.8029 8.99573 25.6327 8.22359 26.4632C8.10667 26.5875 7.98975 26.6386 7.81437 26.6386H6.36746C6.32106 26.5284 6.38512 26.4781 6.44276 26.4328C6.45775 26.421 6.47231 26.4095 6.48438 26.3975C9.12974 23.5621 11.7751 20.7268 14.4205 17.8987C14.5593 17.7526 14.5666 17.6722 14.4424 17.5114C11.797 13.9745 9.15897 10.4303 6.52092 6.88611L6.32361 6.60112C6.4128 6.52865 6.502 6.53697 6.58795 6.545C6.61467 6.5475 6.64107 6.54996 6.66707 6.54996C7.43746 6.54683 8.2092 6.54772 8.98112 6.54862C10.0105 6.54981 11.0401 6.55101 12.0674 6.54265C12.3232 6.54265 12.4693 6.63034 12.6155 6.82034C13.1324 7.51035 13.6494 8.20101 14.1665 8.89194C15.3746 10.506 16.5838 12.1215 17.7966 13.7334L17.8045 13.7438C18.0232 14.0331 18.0261 14.037 18.2789 13.7626C18.99 12.9992 19.7011 12.2365 20.412 11.4741C21.8853 9.89396 23.3576 8.31497 24.8265 6.73265C24.9581 6.60111 25.0823 6.54265 25.265 6.54265C25.5709 6.54743 25.8768 6.54596 26.2072 6.54437ZM11.7386 7.88701H8.99823C9.01766 7.91704 9.03496 7.94408 9.05074 7.96875C9.10024 8.04614 9.13482 8.10021 9.17361 8.15008C9.90072 9.11469 10.6278 10.0811 11.3549 11.0476C12.082 12.014 12.8092 12.9804 13.5363 13.945C16.3059 17.6208 19.0754 21.2965 21.8377 24.9795C21.9473 25.1257 22.0643 25.1915 22.2543 25.1915C22.5904 25.1866 22.9266 25.1882 23.2627 25.1898C23.4308 25.1907 23.5989 25.1915 23.7669 25.1915H24.8119C24.767 25.1293 24.7336 25.0786 24.7046 25.0346C24.6722 24.9856 24.6455 24.945 24.6146 24.9065C23.3687 23.2404 22.121 21.5744 20.8733 19.9083C19.6255 18.2421 18.3776 16.5759 17.1316 14.9096C16.2839 13.7769 15.4362 12.646 14.5884 11.5151C13.7408 10.3843 12.8931 9.25347 12.0455 8.12085C12.0351 8.10623 12.0249 8.09102 12.0147 8.07568C11.9533 7.98365 11.8889 7.88701 11.7386 7.88701Z" fill="#DFC387"/>
</svg>
