<svg width="44" height="30" viewBox="0 0 44 30" fill="none" xmlns="http://www.w3.org/2000/svg">
<path fill-rule="evenodd" clip-rule="evenodd" d="M42.578 6.53489C42.3749 5.01756 41.7859 3.57518 40.8655 2.3413C39.725 1.21101 38.1782 0.567522 36.5594 0.549848C30.5539 0.122803 21.5271 0.122803 21.5271 0.122803C21.5271 0.122803 12.5047 0.122803 6.49049 0.549848C4.87213 0.568647 3.32621 1.21288 2.18655 2.34344C1.26077 3.57373 0.670489 5.01668 0.471925 6.53489C0.203068 8.80748 0.0581663 11.0926 0.0378418 13.3804V16.5833C0.0581663 18.8711 0.203068 21.1562 0.471925 23.4288C0.675944 24.9491 1.25979 26.3968 2.17353 27.6395C3.48446 28.784 5.16871 29.4267 6.92023 29.4502C10.356 29.7726 21.5293 29.8772 21.5293 29.8772C21.5293 29.8772 30.5604 29.8772 36.5659 29.4502C38.1858 29.4325 39.7335 28.7882 40.8742 27.6566C41.7901 26.4199 42.3772 24.9776 42.5823 23.4608C42.8512 21.1883 42.9961 18.9031 43.0164 16.6153V13.3804C42.9906 11.0927 42.8443 8.80775 42.578 6.53489ZM17.2015 20.5292V8.5292L28.9217 14.5505L17.2015 20.5292Z" fill="#DFC387"/>
</svg>
